<svg width="170" height="170" viewBox="0 0 170 170" fill="none" xmlns="http://www.w3.org/2000/svg">
<path d="M85.0002 126.667C108.012 126.667 126.667 108.012 126.667 85.0002C126.667 61.9883 108.012 43.3335 85.0002 43.3335C61.9883 43.3335 43.3335 61.9883 43.3335 85.0002C43.3335 108.012 61.9883 126.667 85.0002 126.667Z" fill="url(#paint0_linear_168_3273)"/>
<g filter="url(#filter0_f_168_3273)">
<path d="M85.0002 115.435C101.809 115.435 115.435 101.809 115.435 85.0002C115.435 68.1916 101.809 54.5654 85.0002 54.5654C68.1916 54.5654 54.5654 68.1916 54.5654 85.0002C54.5654 101.809 68.1916 115.435 85.0002 115.435Z" fill="url(#paint1_linear_168_3273)"/>
</g>
<path fill-rule="evenodd" clip-rule="evenodd" d="M65.1073 53.6883C65.8044 53.6883 66.3695 53.1232 66.3695 52.4261C66.3695 51.7291 65.8044 51.164 65.1073 51.164C64.4102 51.164 63.8451 51.7291 63.8451 52.4261C63.8451 53.1232 64.4102 53.6883 65.1073 53.6883ZM65.1073 54.635C66.3272 54.635 67.3162 53.6461 67.3162 52.4261C67.3162 51.2062 66.3272 50.2173 65.1073 50.2173C63.8874 50.2173 62.8984 51.2062 62.8984 52.4261C62.8984 53.6461 63.8874 54.635 65.1073 54.635Z" fill="white"/>
<path fill-rule="evenodd" clip-rule="evenodd" d="M53.513 106.949C54.2101 106.949 54.7752 106.384 54.7752 105.687C54.7752 104.99 54.2101 104.425 53.513 104.425C52.816 104.425 52.2509 104.99 52.2509 105.687C52.2509 106.384 52.816 106.949 53.513 106.949ZM53.513 107.896C54.733 107.896 55.7219 106.907 55.7219 105.687C55.7219 104.467 54.733 103.478 53.513 103.478C52.2931 103.478 51.3042 104.467 51.3042 105.687C51.3042 106.907 52.2931 107.896 53.513 107.896Z" fill="white"/>
<path fill-rule="evenodd" clip-rule="evenodd" d="M116.919 71.4422C117.616 71.4422 118.181 70.8771 118.181 70.18C118.181 69.483 117.616 68.9179 116.919 68.9179C116.222 68.9179 115.657 69.483 115.657 70.18C115.657 70.8771 116.222 71.4422 116.919 71.4422ZM116.919 72.3889C118.139 72.3889 119.128 71.3998 119.128 70.18C119.128 68.9601 118.139 67.9712 116.919 67.9712C115.699 67.9712 114.71 68.9601 114.71 70.18C114.71 71.3998 115.699 72.3889 116.919 72.3889Z" fill="white"/>
<path d="M50.7216 53.9091C50.8144 53.5245 51.3615 53.5245 51.4543 53.9091L51.7668 55.2035C51.8 55.3409 51.9073 55.4482 52.0447 55.4814L53.3391 55.7939C53.7237 55.8867 53.7237 56.4338 53.3391 56.5266L52.0447 56.8391C51.9073 56.8722 51.8 56.9795 51.7668 57.117L51.4543 58.4114C51.3615 58.796 50.8144 58.796 50.7216 58.4114L50.4091 57.117C50.376 56.9795 50.2687 56.8722 50.1312 56.8391L48.8368 56.5266C48.4522 56.4338 48.4522 55.8867 48.8368 55.7939L50.1312 55.4814C50.2687 55.4482 50.376 55.3409 50.4091 55.2035L50.7216 53.9091Z" fill="white"/>
<path d="M118.078 53.6926C118.179 53.2711 118.779 53.2711 118.881 53.6926L119.223 55.1115C119.26 55.2621 119.377 55.3798 119.528 55.4161L120.946 55.7586C121.368 55.8604 121.368 56.46 120.946 56.5618L119.528 56.9043C119.377 56.9407 119.26 57.0583 119.223 57.2089L118.881 58.6278C118.779 59.0494 118.179 59.0494 118.078 58.6278L117.735 57.2089C117.699 57.0583 117.581 56.9407 117.43 56.9043L116.011 56.5618C115.59 56.46 115.59 55.8604 116.011 55.7586L117.43 55.4161C117.581 55.3798 117.699 55.2621 117.735 55.1115L118.078 53.6926Z" fill="url(#paint2_linear_168_3273)"/>
<path d="M54.9389 115.158C55.4187 115.081 55.8016 115.552 55.6283 116.006L54.4584 119.07C54.285 119.524 53.6854 119.62 53.379 119.243L51.3109 116.698C51.0045 116.321 51.2212 115.753 51.7009 115.677L54.9389 115.158Z" fill="url(#paint3_linear_168_3273)"/>
<path d="M112.528 106.742C112.409 106.271 112.843 105.847 113.311 105.978L116.468 106.865C116.935 106.997 117.086 107.585 116.738 107.924L114.391 110.215C114.043 110.554 113.459 110.39 113.339 109.919L112.528 106.742Z" fill="url(#paint4_linear_168_3273)"/>
<path d="M101.126 90.7479L72.9932 80.508C70.8367 79.7232 68.4522 80.8352 67.6673 82.9917L61.0261 101.238C60.2412 103.395 61.3531 105.779 63.5096 106.564L91.6429 116.804C93.7994 117.588 96.1838 116.476 96.9686 114.32L103.61 96.0736C104.395 93.9171 103.283 91.5326 101.126 90.7479Z" fill="url(#paint5_linear_168_3273)"/>
<path d="M99.9843 96.3993L108.295 84.4286C109.603 82.5435 109.136 79.9544 107.251 78.6457L95.2806 70.3351C93.3955 69.0263 90.8064 69.4936 89.4977 71.3786L81.1872 83.3493C79.8785 85.2344 80.3455 87.8236 82.2306 89.1323L94.2013 97.4428C96.0864 98.7515 98.6756 98.2841 99.9843 96.3993Z" fill="url(#paint6_linear_168_3273)"/>
<path d="M90.5231 86.8725C90.0148 87.5732 89.038 87.7283 88.3373 87.2196C87.6365 86.7112 87.4818 85.7344 87.9902 85.0337C88.4989 84.333 89.4757 84.1779 90.1764 84.6866C90.8768 85.1953 91.0318 86.1721 90.5231 86.8725Z" fill="url(#paint7_linear_168_3273)"/>
<path d="M95.1478 80.491L94.1807 79.7896L89.563 86.1573L90.53 86.8588L95.1478 80.491Z" fill="url(#paint8_linear_168_3273)"/>
<path d="M95.9574 88.0024C95.4487 88.7031 94.4719 88.8582 93.7715 88.3495C93.0708 87.8411 92.9157 86.8643 93.4244 86.1636C93.9327 85.4629 94.9095 85.3078 95.6103 85.8165C96.311 86.3252 96.4661 87.302 95.9574 88.0024Z" fill="url(#paint9_linear_168_3273)"/>
<path d="M100.591 81.6176L99.6239 80.9165L95.0068 87.285L95.9742 87.9861L100.591 81.6176Z" fill="url(#paint10_linear_168_3273)"/>
<path d="M100.579 81.6339L93.5664 80.6411L94.1823 79.7886L101.194 80.7846L100.579 81.6339Z" fill="url(#paint11_linear_168_3273)"/>
<path d="M99.4145 83.2379L92.4019 82.2451L93.0178 81.3926L100.032 82.3897L99.4145 83.2379Z" fill="url(#paint12_linear_168_3273)"/>
<path d="M93.8307 69.9024L91.397 58.6271C90.9129 56.3839 88.7017 54.9579 86.4586 55.4421L71.7144 58.6245C69.4712 59.1086 68.0453 61.3196 68.5295 63.5629L70.9632 74.8382C71.4473 77.0813 73.6582 78.5074 75.9017 78.0233L90.6455 74.8407C92.889 74.3567 94.3147 72.1458 93.8307 69.9024Z" fill="url(#paint13_linear_168_3273)"/>
<path d="M93.6382 68.7434L85.3734 62.1074L82.1781 68.4068L78.8121 66.4663L74.1585 72.9442L70.668 73.6964L70.8342 74.4776C71.3951 77.0707 73.9505 78.7203 76.5437 78.1591L90.1187 75.2297C92.7118 74.6689 94.3614 72.1134 93.8002 69.5204L93.6342 68.7434H93.6382Z" fill="url(#paint14_linear_168_3273)"/>
<path opacity="0.9" d="M74.0753 65.7139C75.3677 65.6807 76.2028 64.3842 75.6999 63.1958C75.4173 62.531 74.7402 62.0947 74.017 62.1113C72.7249 62.1446 71.8894 63.441 72.3923 64.6294C72.6749 65.2942 73.3521 65.7305 74.0753 65.7139Z" fill="white"/>
<path d="M96.5336 113.652C95.9586 116.069 93.4047 117.445 91.0699 116.595L62.9891 106.374C61.0067 105.653 59.8796 103.561 60.3678 101.508L64.3555 84.7458C64.9306 82.3284 67.4843 80.9527 69.8191 81.8027L97.8999 92.0233C99.8822 92.7447 101.009 94.8371 100.521 96.8897L96.5336 113.652Z" fill="url(#paint15_linear_168_3273)"/>
<defs>
<filter id="filter0_f_168_3273" x="0.56543" y="0.56543" width="168.87" height="168.87" filterUnits="userSpaceOnUse" color-interpolation-filters="sRGB">
<feFlood flood-opacity="0" result="BackgroundImageFix"/>
<feBlend mode="normal" in="SourceGraphic" in2="BackgroundImageFix" result="shape"/>
<feGaussianBlur stdDeviation="27" result="effect1_foregroundBlur_168_3273"/>
</filter>
<linearGradient id="paint0_linear_168_3273" x1="54.9579" y1="43.3335" x2="118.559" y2="56.573" gradientUnits="userSpaceOnUse">
<stop stop-color="#A259FF"/>
<stop offset="1" stop-color="#3B3B3B"/>
</linearGradient>
<linearGradient id="paint1_linear_168_3273" x1="120.145" y1="90.0727" x2="97.498" y2="129.11" gradientUnits="userSpaceOnUse">
<stop stop-color="#A259FF" stop-opacity="0"/>
<stop offset="1" stop-color="#FF6250"/>
</linearGradient>
<linearGradient id="paint2_linear_168_3273" x1="119.669" y1="54.6137" x2="125.006" y2="58.8056" gradientUnits="userSpaceOnUse">
<stop stop-color="#A259FF"/>
<stop offset="1" stop-color="#377DF7"/>
</linearGradient>
<linearGradient id="paint3_linear_168_3273" x1="55.4337" y1="116.712" x2="55.2554" y2="122.022" gradientUnits="userSpaceOnUse">
<stop stop-color="#A259FF"/>
<stop offset="1" stop-color="#377DF7"/>
</linearGradient>
<linearGradient id="paint4_linear_168_3273" x1="114.031" y1="106.108" x2="119.335" y2="105.803" gradientUnits="userSpaceOnUse">
<stop stop-color="#A259FF"/>
<stop offset="1" stop-color="#377DF7"/>
</linearGradient>
<linearGradient id="paint5_linear_168_3273" x1="92.6367" y1="94.2149" x2="108.157" y2="131.307" gradientUnits="userSpaceOnUse">
<stop stop-color="#A259FF"/>
<stop offset="0.416667" stop-color="#A259FF" stop-opacity="0"/>
</linearGradient>
<linearGradient id="paint6_linear_168_3273" x1="97.1723" y1="91.5326" x2="70.5106" y2="99.7257" gradientUnits="userSpaceOnUse">
<stop stop-color="#FF7262"/>
<stop offset="0.317708" stop-color="#A259FF"/>
</linearGradient>
<linearGradient id="paint7_linear_168_3273" x1="92.9811" y1="79.621" x2="95.9362" y2="85.8453" gradientUnits="userSpaceOnUse">
<stop stop-color="#3B3B3B"/>
<stop offset="1" stop-color="#A259FF"/>
</linearGradient>
<linearGradient id="paint8_linear_168_3273" x1="103.42" y1="68.9334" x2="106.026" y2="71.491" gradientUnits="userSpaceOnUse">
<stop stop-color="#3B3B3B"/>
<stop offset="1" stop-color="#A259FF"/>
</linearGradient>
<linearGradient id="paint9_linear_168_3273" x1="98.4153" y1="80.7513" x2="101.37" y2="86.9752" gradientUnits="userSpaceOnUse">
<stop stop-color="#3B3B3B"/>
<stop offset="1" stop-color="#A259FF"/>
</linearGradient>
<linearGradient id="paint10_linear_168_3273" x1="108.862" y1="70.0585" x2="111.467" y2="72.6158" gradientUnits="userSpaceOnUse">
<stop stop-color="#3B3B3B"/>
<stop offset="1" stop-color="#A259FF"/>
</linearGradient>
<linearGradient id="paint11_linear_168_3273" x1="102.221" y1="76.4013" x2="102.115" y2="83.723" gradientUnits="userSpaceOnUse">
<stop stop-color="#3B3B3B"/>
<stop offset="1" stop-color="#A259FF"/>
</linearGradient>
<linearGradient id="paint12_linear_168_3273" x1="101.059" y1="78.0064" x2="100.952" y2="85.3281" gradientUnits="userSpaceOnUse">
<stop stop-color="#3B3B3B"/>
<stop offset="1" stop-color="#A259FF"/>
</linearGradient>
<linearGradient id="paint13_linear_168_3273" x1="84.4817" y1="58.5129" x2="89.1868" y2="73.8914" gradientUnits="userSpaceOnUse">
<stop stop-color="#FF7262"/>
<stop offset="1" stop-color="#A259FF"/>
</linearGradient>
<linearGradient id="paint14_linear_168_3273" x1="81.1571" y1="84.2758" x2="76.0462" y2="65.3973" gradientUnits="userSpaceOnUse">
<stop stop-color="#A259FF"/>
<stop offset="1" stop-color="white"/>
</linearGradient>
<linearGradient id="paint15_linear_168_3273" x1="89.8061" y1="108.48" x2="70.262" y2="58.7543" gradientUnits="userSpaceOnUse">
<stop stop-color="#A259FF"/>
<stop offset="0.666667" stop-color="white"/>
</linearGradient>
</defs>
</svg>
