<svg width="170" height="169" viewBox="0 0 170 169" fill="none" xmlns="http://www.w3.org/2000/svg">
<path d="M85.0002 126.167C108.012 126.167 126.667 107.512 126.667 84.5002C126.667 61.4883 108.012 42.8335 85.0002 42.8335C61.9883 42.8335 43.3335 61.4883 43.3335 84.5002C43.3335 107.512 61.9883 126.167 85.0002 126.167Z" fill="url(#paint0_linear_168_3225)"/>
<g filter="url(#filter0_f_168_3225)">
<path d="M85.0002 114.935C101.809 114.935 115.435 101.309 115.435 84.5002C115.435 67.6916 101.809 54.0654 85.0002 54.0654C68.1916 54.0654 54.5654 67.6916 54.5654 84.5002C54.5654 101.309 68.1916 114.935 85.0002 114.935Z" fill="url(#paint1_linear_168_3225)"/>
</g>
<path fill-rule="evenodd" clip-rule="evenodd" d="M82.1364 50.6522C82.8335 50.6522 83.3987 50.0871 83.3987 49.39C83.3987 48.6929 82.8335 48.1278 82.1364 48.1278C81.4393 48.1278 80.8745 48.6929 80.8745 49.39C80.8745 50.0871 81.4393 50.6522 82.1364 50.6522ZM82.1364 51.5989C83.3564 51.5989 84.3455 50.6099 84.3455 49.39C84.3455 48.1701 83.3564 47.1812 82.1364 47.1812C80.9165 47.1812 79.9277 48.1701 79.9277 49.39C79.9277 50.6099 80.9165 51.5989 82.1364 51.5989Z" fill="white"/>
<path fill-rule="evenodd" clip-rule="evenodd" d="M52.0638 108.623C52.7609 108.623 53.326 108.058 53.326 107.361C53.326 106.664 52.7609 106.099 52.0638 106.099C51.3668 106.099 50.8016 106.664 50.8016 107.361C50.8016 108.058 51.3668 108.623 52.0638 108.623ZM52.0638 109.57C53.2837 109.57 54.2727 108.581 54.2727 107.361C54.2727 106.141 53.2837 105.152 52.0638 105.152C50.8439 105.152 49.855 106.141 49.855 107.361C49.855 108.581 50.8439 109.57 52.0638 109.57Z" fill="white"/>
<path fill-rule="evenodd" clip-rule="evenodd" d="M121.267 105.724C121.964 105.724 122.53 105.159 122.53 104.462C122.53 103.765 121.964 103.2 121.267 103.2C120.57 103.2 120.005 103.765 120.005 104.462C120.005 105.159 120.57 105.724 121.267 105.724ZM121.267 106.671C122.487 106.671 123.476 105.682 123.476 104.462C123.476 103.242 122.487 102.253 121.267 102.253C120.047 102.253 119.059 103.242 119.059 104.462C119.059 105.682 120.047 106.671 121.267 106.671Z" fill="white"/>
<path d="M61.5907 56.3075C61.6836 55.9229 62.2306 55.9229 62.3235 56.3075L62.6359 57.6019C62.6691 57.7393 62.7764 57.8467 62.9139 57.8798L64.2083 58.1923C64.5929 58.2851 64.5929 58.8322 64.2083 58.925L62.9139 59.2375C62.7764 59.2707 62.6691 59.378 62.6359 59.5154L62.3235 60.8098C62.2306 61.1944 61.6836 61.1944 61.5907 60.8098L61.2783 59.5154C61.2451 59.378 61.1378 59.2707 61.0003 59.2375L59.7059 58.925C59.3213 58.8322 59.3213 58.2851 59.7059 58.1923L61.0003 57.8798C61.1378 57.8467 61.2451 57.7393 61.2783 57.6019L61.5907 56.3075Z" fill="white"/>
<path d="M115.18 112.975C115.281 112.554 115.881 112.554 115.983 112.975L116.325 114.394C116.361 114.545 116.479 114.663 116.63 114.699L118.049 115.042C118.47 115.143 118.47 115.743 118.049 115.844L116.63 116.187C116.479 116.223 116.361 116.341 116.325 116.492L115.983 117.91C115.881 118.332 115.281 118.332 115.18 117.91L114.837 116.492C114.801 116.341 114.683 116.223 114.533 116.187L113.114 115.844C112.692 115.743 112.692 115.143 113.114 115.042L114.533 114.699C114.683 114.663 114.801 114.545 114.837 114.394L115.18 112.975Z" fill="url(#paint2_linear_168_3225)"/>
<path d="M55.6636 118.282C56.1433 118.205 56.5262 118.676 56.3529 119.13L55.183 122.193C55.0096 122.647 54.41 122.743 54.1036 122.366L52.0355 119.821C51.7291 119.444 51.9458 118.877 52.4255 118.8L55.6636 118.282Z" fill="url(#paint3_linear_168_3225)"/>
<path d="M117.239 59.5026C117.119 59.0318 117.553 58.6076 118.021 58.7391L121.178 59.6263C121.646 59.7577 121.796 60.3461 121.448 60.6855L119.102 62.9759C118.754 63.3152 118.169 63.151 118.049 62.6802L117.239 59.5026Z" fill="url(#paint4_linear_168_3225)"/>
<path d="M106.727 81.4969L99.8818 82.8277C97.9339 83.2059 96.6622 85.0918 97.0408 87.0392C97.4194 88.9867 99.3049 90.2585 101.252 89.8802L108.098 88.5494C110.046 88.1708 111.317 86.2853 110.939 84.3378C110.56 82.3903 108.675 81.1182 106.727 81.4969Z" fill="url(#paint5_linear_168_3225)"/>
<path d="M109.417 85.0089C109.452 84.1223 108.761 83.3755 107.874 83.3411C106.987 83.3063 106.241 83.9973 106.206 84.8839C106.172 85.7705 106.862 86.5172 107.749 86.552C108.636 86.5864 109.383 85.8955 109.417 85.0089Z" fill="#EBEBEB"/>
<path d="M107.979 85.8096C108.456 85.7168 108.767 85.2552 108.674 84.7788C108.582 84.302 108.12 83.9907 107.643 84.0831C107.167 84.1759 106.855 84.6375 106.948 85.1143C107.041 85.5907 107.502 85.9023 107.979 85.8096Z" fill="#DBDBDB"/>
<path d="M95.8735 70.6776L60.9208 77.4718C58.9565 77.8534 57.6737 79.7555 58.0555 81.7197L62.778 106.015C63.1598 107.979 65.0617 109.262 67.026 108.88L101.979 102.086C103.943 101.704 105.226 99.8023 104.844 97.8378L100.121 73.5428C99.7398 71.5787 97.838 70.2958 95.8735 70.6776Z" fill="url(#paint6_linear_168_3225)"/>
<path d="M95.2348 59.6298L102.375 78.0848C102.774 79.1163 102.261 80.2764 101.231 80.6753L71.9616 91.9989C70.9318 92.3982 69.7717 91.8844 69.3719 90.8529L62.2322 72.3978C61.8616 71.4377 62.3377 70.3588 63.2981 69.9882L92.8243 58.5662C93.7848 58.1956 94.8634 58.6717 95.2341 59.6321L95.2348 59.6298Z" fill="url(#paint7_linear_168_3225)"/>
<path d="M96.6096 77.3246C96.9755 78.2736 96.5048 79.3406 95.5559 79.7065C94.6074 80.0728 93.54 79.6018 93.174 78.6529C92.8077 77.7044 93.2788 76.6373 94.2277 76.271C95.1762 75.9051 96.2436 76.3761 96.6096 77.3246Z" fill="url(#paint8_linear_168_3225)"/>
<path d="M98.7241 76.5051C99.0904 77.4541 98.6194 78.5211 97.6708 78.8874C96.7219 79.2533 95.6549 78.7823 95.2886 77.8338C94.9227 76.8849 95.3937 75.8178 96.3422 75.4519C97.2911 75.0856 98.3582 75.5566 98.7241 76.5051Z" fill="url(#paint9_linear_168_3225)"/>
<path d="M71.0537 70.6303L66.2583 72.4854C65.8717 72.6351 65.6795 73.0698 65.8291 73.4564L66.944 76.3383C67.0936 76.7249 67.5283 76.9173 67.9149 76.7677L72.7101 74.9122C73.0971 74.763 73.2891 74.3282 73.1395 73.9416L72.0246 71.0597C71.875 70.673 71.4402 70.4808 71.0537 70.6303Z" fill="url(#paint10_linear_168_3225)"/>
<path d="M92.8802 64.8851L90.0762 65.9691C89.4273 66.2183 88.6991 65.8967 88.448 65.2483C88.1991 64.5993 88.5204 63.8709 89.169 63.6201L91.9726 62.5362C92.6212 62.2854 93.3501 62.6085 93.6009 63.257C93.8501 63.906 93.5284 64.6343 92.8802 64.8851Z" fill="white"/>
<path d="M68.4967 81.0275L68.3008 81.275C68.3008 81.275 68.2846 81.2928 68.2729 81.2971C68.2496 81.3062 68.2244 81.3004 68.208 81.2877C68.1768 81.2612 68.1727 81.2207 68.1987 81.1935L68.4644 80.8486C68.487 80.8225 68.5326 80.8167 68.5585 80.8391C68.5726 80.8511 68.58 80.8652 68.5847 80.8826L69.2238 82.5326C69.2366 82.5659 69.2225 82.604 69.1858 82.6181C69.1524 82.6308 69.1131 82.6134 69.1004 82.5801L68.5001 81.0261L68.4967 81.0275Z" fill="#F8F8F8"/>
<path d="M69.6433 82.3141L70.1888 81.2315C70.2531 81.0997 70.2591 80.9558 70.2097 80.8272C70.1675 80.717 70.0835 80.6232 69.9695 80.5652C69.8409 80.5 69.6943 80.4968 69.5698 80.5464C69.4563 80.5902 69.3609 80.6707 69.3016 80.7855L69.2455 80.8989C69.2301 80.9334 69.1878 80.9478 69.1582 80.9305C69.1235 80.9149 69.1092 80.8728 69.1265 80.8431L69.1819 80.7279C69.2569 80.5844 69.3805 80.4776 69.5224 80.4232C69.6792 80.3627 69.8608 80.362 70.0282 80.4489C70.1768 80.5221 70.2807 80.6431 70.3338 80.7815C70.3947 80.9402 70.3928 81.1247 70.3098 81.2924L69.8427 82.2203L70.6937 81.8935C70.7264 81.879 70.765 81.8949 70.7791 81.9315C70.7919 81.9649 70.7745 82.0044 70.7411 82.017L69.7396 82.4051L69.7296 82.4091C69.7112 82.4163 69.6909 82.4181 69.6758 82.4087C69.6416 82.3891 69.6268 82.3507 69.6423 82.3163L69.6433 82.3141Z" fill="#F8F8F8"/>
<path d="M71.6371 79.7334L71.3574 80.3903C71.4795 80.3704 71.6085 80.382 71.7288 80.4356C71.8925 80.5084 72.0128 80.6421 72.073 80.799C72.1331 80.9559 72.1349 81.1352 72.0603 81.2997C71.9875 81.4639 71.8541 81.5856 71.698 81.6475C71.5447 81.7062 71.3654 81.7081 71.2008 81.6334C71.1668 81.6196 71.1497 81.5805 71.1662 81.5436C71.1793 81.5077 71.2193 81.4925 71.2563 81.5088C71.3867 81.5642 71.5262 81.5642 71.6498 81.5168C71.7733 81.4693 71.8788 81.3751 71.9382 81.2454C71.9965 81.1135 71.9943 80.9729 71.9469 80.8494C71.8994 80.7258 71.8056 80.6204 71.6751 80.5653C71.5451 80.5059 71.4045 80.5084 71.2809 80.5555C71.261 80.5635 71.2385 80.5602 71.2196 80.5504L71.2162 80.5519C71.1799 80.537 71.1639 80.4954 71.181 80.4599L71.4498 79.8283L70.7606 80.0928C70.7246 80.1088 70.6853 80.0914 70.6719 80.0562C70.6578 80.0196 70.6752 79.9802 70.7103 79.9668L71.5512 79.6439C71.5871 79.6283 71.6266 79.6457 71.64 79.6809C71.644 79.6907 71.6443 79.7023 71.6425 79.7124C71.6425 79.7218 71.64 79.7305 71.6367 79.7374L71.6371 79.7334Z" fill="#F8F8F8"/>
<path d="M73.6538 80.4642L72.681 80.8414L72.6726 80.8446C72.6592 80.8497 72.6429 80.8522 72.6291 80.8461C72.5929 80.837 72.5737 80.7964 72.5875 80.7624L73.127 79.066L73.1288 79.0613C73.1415 79.024 73.1752 79.0073 73.2125 79.0196C73.2255 79.0243 73.2353 79.0341 73.244 79.0421C73.2458 79.0472 73.2505 79.049 73.2512 79.0508L73.2545 79.0591L73.731 80.291L73.8512 80.2446C73.8878 80.2309 73.9273 80.2483 73.94 80.2816C73.9527 80.3149 73.9353 80.3541 73.9002 80.3675L73.7802 80.4138L73.8987 80.7225C73.9114 80.7559 73.894 80.795 73.8589 80.8084C73.8255 80.8214 73.7864 80.8037 73.7733 80.7704L73.6549 80.4617L73.6538 80.4642ZM73.6067 80.3406L73.1991 79.2892L72.757 80.6707L73.6078 80.3439L73.6067 80.3406Z" fill="#F8F8F8"/>
<path d="M75.9796 79.7855C75.9433 79.7707 75.9274 79.729 75.9452 79.6953C75.9607 79.6609 76.0017 79.6431 76.0368 79.6602C76.1673 79.7156 76.3071 79.7156 76.4303 79.6681C76.5539 79.6207 76.656 79.5279 76.7147 79.3964C76.7734 79.2645 76.7716 79.1254 76.7241 79.0022C76.6763 78.8768 76.5821 78.7714 76.4528 78.7138C76.3241 78.658 76.1828 78.6587 76.0593 78.7058C75.9339 78.754 75.8303 78.8475 75.7716 78.979C75.756 79.0138 75.7144 79.0297 75.6814 79.0138C75.6712 79.012 75.6629 79.0055 75.6589 78.9993L75.6575 78.996C75.6575 78.996 75.6524 78.9924 75.651 78.9892C75.6459 78.9852 75.6426 78.9768 75.6401 78.9703C75.6386 78.9671 75.6383 78.9613 75.6365 78.9562L75.443 78.1979C75.4354 78.1779 75.439 78.1573 75.4502 78.1417C75.4564 78.1276 75.4694 78.1171 75.4861 78.1105L76.3238 77.7892C76.3597 77.7732 76.3988 77.7906 76.4126 77.8258C76.427 77.8642 76.4089 77.9018 76.3741 77.9152L75.5897 78.2163L75.7325 78.7779C75.8031 78.6873 75.8973 78.6189 76.006 78.5772C76.1629 78.5171 76.3376 78.5131 76.5042 78.5888C76.6716 78.6605 76.7872 78.7921 76.8488 78.9522C76.9075 79.1058 76.914 79.2873 76.8375 79.4526C76.764 79.6145 76.6292 79.7373 76.4741 79.7968C76.3173 79.8569 76.1379 79.8587 75.9741 79.7859L75.9796 79.7855Z" fill="#F8F8F8"/>
<path d="M77.2166 77.8965C77.2565 77.6306 77.4011 77.3893 77.6953 77.2628C77.7275 77.2469 77.7666 77.2643 77.783 77.2965C77.7967 77.3331 77.7793 77.3723 77.7467 77.3867C77.4985 77.4936 77.3902 77.6846 77.3482 77.915C77.3268 78.0436 77.3355 78.186 77.3598 78.3241C77.421 78.1589 77.5485 78.0179 77.7257 77.9502C78.0576 77.8226 78.4246 77.986 78.5503 78.3132C78.6764 78.6418 78.5145 79.0081 78.1848 79.1367C77.863 79.2603 77.5036 79.1074 77.3695 78.7933C77.35 78.7567 77.3351 78.7183 77.3192 78.6766C77.2293 78.4375 77.1772 78.1567 77.2185 77.8958L77.2166 77.8965ZM77.4909 78.7349C77.496 78.7483 77.5032 78.757 77.5087 78.7665C77.5119 78.7748 77.5137 78.7799 77.5123 78.786C77.6319 79.0027 77.8982 79.1031 78.1337 79.0128C78.3956 78.9125 78.5243 78.6197 78.4257 78.3628C78.3272 78.106 78.0344 77.977 77.7724 78.0777C77.5156 78.1762 77.3866 78.4686 77.4855 78.7259L77.4891 78.7357L77.4909 78.7349Z" fill="#F8F8F8"/>
<path d="M79.4 78.5674L79.4544 76.7337L78.5848 77.0674C78.5522 77.0815 78.5134 77.0659 78.5007 77.0326C78.4881 76.9993 78.5054 76.9598 78.5388 76.9471L79.4899 76.5819C79.5011 76.5717 79.5131 76.5674 79.5283 76.5674C79.5464 76.5699 79.5656 76.5797 79.5765 76.5927C79.583 76.6 79.5866 76.6043 79.5891 76.6109C79.5942 76.6243 79.5946 76.6355 79.5917 76.6482L79.5355 78.5706C79.5344 78.5978 79.5167 78.6221 79.4935 78.6308C79.4833 78.6348 79.4783 78.6366 79.4663 78.6355C79.4297 78.6344 79.4 78.6018 79.3982 78.5677L79.4 78.5674Z" fill="#F8F8F8"/>
<path d="M80.5128 76.1697C80.7182 76.091 80.9523 76.1925 81.0313 76.3976C81.0791 76.5229 81.0592 76.6548 80.9943 76.7602C81.2411 76.765 81.4718 76.9175 81.565 77.1595C81.6892 77.4831 81.5305 77.8429 81.2074 77.9686C80.8853 78.0925 80.524 77.9342 80.3983 77.6113C80.3052 77.3693 80.3733 77.1019 80.5494 76.9331C80.4331 76.899 80.3313 76.8139 80.2834 76.6885C80.2045 76.4834 80.3034 76.2519 80.5121 76.1718L80.5128 76.1697ZM81.161 77.8429C81.4179 77.7443 81.5403 77.4599 81.4432 77.2063C81.3465 76.9545 81.0635 76.8255 80.8063 76.9244C80.5526 77.0215 80.4276 77.3088 80.5244 77.561C80.6222 77.816 80.9074 77.9403 81.161 77.8429ZM80.7555 76.7965C80.8925 76.74 80.9624 76.5831 80.9095 76.4443C80.8563 76.3059 80.7005 76.2392 80.5621 76.2925C80.4237 76.3458 80.3563 76.4997 80.4095 76.6381C80.4628 76.7766 80.6179 76.8472 80.757 76.7958L80.7555 76.7965Z" fill="#F8F8F8"/>
<path d="M83.7066 74.9342C84.0153 74.8157 84.3526 74.9469 84.4993 75.2291C84.5044 75.2331 84.5058 75.2364 84.5095 75.2407C84.5312 75.2878 84.553 75.3389 84.5732 75.3922C84.6649 75.631 84.7167 75.9154 84.6787 76.1752C84.637 76.436 84.491 76.6835 84.2001 76.8085L84.1968 76.8099C84.1602 76.8241 84.1222 76.8099 84.1091 76.7766C84.0953 76.7397 84.1098 76.7034 84.1453 76.686C84.3895 76.5788 84.5055 76.3871 84.5439 76.1578C84.5638 76.0259 84.5598 75.8857 84.5323 75.7487C84.4711 75.9139 84.3414 76.0498 84.1613 76.119C83.8341 76.2444 83.4674 76.0868 83.3381 75.7552C83.2127 75.4284 83.3761 75.061 83.7033 74.9357L83.7066 74.9342ZM84.4048 75.3422C84.3062 75.0853 84.0164 74.9589 83.7544 75.0596C83.4975 75.1581 83.3682 75.4491 83.466 75.7045C83.5667 75.9665 83.8573 76.09 84.1142 75.9915C84.3761 75.8911 84.5055 75.6041 84.403 75.3425L84.4048 75.3422Z" fill="#F8F8F8"/>
<path d="M85.1072 75.4265C85.0145 75.1848 84.9898 74.9413 85.0355 74.7305C85.084 74.5283 85.1985 74.358 85.3804 74.2881C85.5623 74.2182 85.763 74.2674 85.934 74.3837C86.1065 74.5091 86.258 74.7037 86.3525 74.945C86.4453 75.1866 86.4648 75.4319 86.4196 75.6388C86.3717 75.8428 86.2576 76.0149 86.0757 76.0848C85.8938 76.1544 85.6931 76.1051 85.521 75.9855C85.3482 75.8645 85.1996 75.6671 85.1065 75.425L85.1072 75.4265ZM85.2322 75.3787C85.317 75.599 85.4533 75.7743 85.6 75.8769C85.7456 75.9779 85.8993 76.0091 86.0279 75.9595C86.1562 75.9102 86.2456 75.7841 86.2884 75.6109C86.3268 75.437 86.3123 75.2149 86.2279 74.9946C86.1435 74.7743 86.0036 74.6 85.8587 74.4968C85.7094 74.3917 85.5594 74.3649 85.4308 74.4142C85.3022 74.4634 85.2076 74.5859 85.1703 74.7631C85.1319 74.9366 85.1496 75.1577 85.2348 75.3798L85.2322 75.3787Z" fill="#F8F8F8"/>
<path d="M86.9054 73.9068L86.7097 74.1546C86.7097 74.1546 86.6934 74.172 86.6818 74.1767C86.6583 74.1857 86.6333 74.1799 86.6166 74.1673C86.5854 74.1408 86.5815 74.1002 86.6075 74.0731L86.8731 73.7278C86.896 73.702 86.9412 73.6959 86.9673 73.7187C86.9815 73.7303 86.9887 73.7448 86.9934 73.7622L87.6326 75.4118C87.6452 75.4455 87.6311 75.4832 87.5945 75.4973C87.5612 75.5104 87.522 75.4926 87.509 75.4593L86.909 73.9057L86.9054 73.9068Z" fill="#F8F8F8"/>
<path d="M88.0517 75.1926L88.597 74.1104C88.6615 73.9785 88.6673 73.8343 88.618 73.706C88.5757 73.5959 88.492 73.5017 88.3778 73.4441C88.2492 73.3785 88.1025 73.3756 87.9782 73.4252C87.8648 73.4687 87.7699 73.5509 87.7097 73.664L87.6539 73.7774C87.6383 73.8122 87.5959 73.8263 87.5666 73.8089C87.5318 73.7937 87.5173 73.7513 87.5347 73.7216L87.5901 73.6067C87.6651 73.4629 87.7887 73.356 87.93 73.2999C88.0869 73.2397 88.2684 73.239 88.4358 73.3259C88.5844 73.3991 88.6883 73.5201 88.7416 73.6586C88.8025 73.8169 88.8003 74.0017 88.7173 74.1694L88.2503 75.0973L89.1014 74.7705C89.134 74.756 89.1735 74.7734 89.1869 74.8086C89.1996 74.8419 89.1822 74.881 89.1488 74.8941L88.1474 75.2821L88.1372 75.2861C88.1188 75.293 88.0985 75.2951 88.0836 75.2857C88.0492 75.2662 88.0344 75.2278 88.0499 75.1933L88.0517 75.1926Z" fill="#F8F8F8"/>
<path d="M91.5846 72.0171L91.3045 72.6744C91.427 72.6541 91.5559 72.6657 91.6759 72.7193C91.84 72.7921 91.9603 72.9258 92.0204 73.0827C92.0806 73.2396 92.0824 73.4189 92.0078 73.5834C91.9346 73.7475 91.8016 73.8693 91.6469 73.9305C91.4936 73.9896 91.3125 73.9921 91.148 73.9175C91.1139 73.9037 91.0969 73.8642 91.1135 73.8273C91.1273 73.7932 91.1664 73.7762 91.2034 73.7925C91.3338 73.8479 91.4737 73.8479 91.5972 73.8004C91.7204 73.753 91.8262 73.6588 91.8853 73.5291C91.944 73.3975 91.9414 73.2566 91.8943 73.133C91.8469 73.0099 91.7527 72.9041 91.6222 72.849C91.4925 72.7896 91.3516 72.7921 91.228 72.8396C91.2081 72.8472 91.186 72.8443 91.1668 72.8341L91.1635 72.8356C91.1273 72.8207 91.111 72.7791 91.1284 72.7436L91.3969 72.1124L90.7078 72.3769C90.6719 72.3925 90.6327 72.3751 90.619 72.3399C90.6052 72.3033 90.6226 72.2638 90.6574 72.2504L91.4983 71.9276C91.5346 71.912 91.5737 71.9294 91.5871 71.9646C91.5911 71.9747 91.5914 71.9859 91.5896 71.9961C91.5896 72.0059 91.5871 72.0142 91.5842 72.0211L91.5846 72.0171Z" fill="#F8F8F8"/>
<path d="M93.6013 72.7477L92.627 73.122L92.6241 73.1249L92.6194 73.1267C92.606 73.1318 92.5904 73.1361 92.5759 73.1281C92.5397 73.1191 92.5205 73.0785 92.5343 73.0444L93.0737 71.3481L93.0756 71.3434C93.0882 71.306 93.1219 71.2894 93.1593 71.3021C93.1723 71.3064 93.1821 71.3162 93.1908 71.3242C93.1926 71.3292 93.1958 71.3318 93.198 71.3328L93.2013 71.3412L93.6777 72.5731L93.798 72.5271C93.8346 72.5129 93.8741 72.5303 93.8868 72.5636C93.8995 72.597 93.8821 72.6365 93.8469 72.6499L93.727 72.6959L93.8455 73.0046C93.8582 73.0379 93.8408 73.0771 93.8056 73.0905C93.7723 73.1035 93.7332 73.0861 93.7201 73.0524L93.6016 72.7437L93.6013 72.7477ZM93.5538 72.6245L93.1466 71.5727L92.7042 72.9542L93.5553 72.6278L93.5538 72.6245Z" fill="#F8F8F8"/>
<path d="M94.3883 72.6636C94.352 72.6487 94.3361 72.6071 94.3538 72.5734C94.3691 72.539 94.4111 72.5227 94.4455 72.5382C94.576 72.5933 94.7154 72.5933 94.839 72.5462C94.9625 72.4987 95.0647 72.406 95.1234 72.2741C95.1821 72.1426 95.1803 72.0035 95.1328 71.8799C95.0847 71.7549 94.9908 71.6495 94.8615 71.5919C94.7321 71.5343 94.5912 71.5364 94.468 71.5839C94.3426 71.6321 94.239 71.7256 94.1803 71.8571C94.1647 71.8919 94.1238 71.9093 94.0901 71.8915C94.0799 71.8897 94.0716 71.8835 94.0676 71.8774L94.0662 71.8741C94.0662 71.8741 94.0611 71.8705 94.0596 71.8669C94.0542 71.8632 94.0513 71.8549 94.0488 71.8484C94.0473 71.8448 94.047 71.8393 94.0452 71.8343L93.8517 71.0759C93.8441 71.0556 93.8477 71.0353 93.8589 71.0194C93.8651 71.0056 93.8781 70.9948 93.8948 70.9886L94.7321 70.667C94.7683 70.6512 94.8075 70.6687 94.8209 70.7037C94.8357 70.7422 94.8176 70.7795 94.7825 70.7929L93.9984 71.094L94.1412 71.6556C94.2125 71.5672 94.306 71.4966 94.4147 71.4553C94.5712 71.3948 94.7459 71.3911 94.9129 71.4669C95.0803 71.5386 95.1959 71.6701 95.2575 71.8303C95.3162 71.9839 95.3227 72.165 95.2462 72.3303C95.1727 72.4926 95.0379 72.615 94.8828 72.6748C94.726 72.735 94.5466 72.7368 94.3828 72.664L94.3883 72.6636Z" fill="#F8F8F8"/>
<path d="M95.625 70.7746C95.6649 70.5085 95.8087 70.2655 96.1037 70.1409C96.1359 70.1247 96.175 70.1422 96.191 70.1743C96.2051 70.211 96.1877 70.2502 96.1551 70.2647C95.9077 70.3731 95.7982 70.5625 95.7566 70.793C95.7352 70.9217 95.7439 71.0637 95.7682 71.2021C95.8294 71.0369 95.9569 70.8959 96.1337 70.8282C96.466 70.7006 96.833 70.864 96.9587 71.1909C97.0848 71.5198 96.9229 71.8862 96.5932 72.0148C96.2711 72.1383 95.912 71.9854 95.7779 71.6709C95.758 71.6347 95.7435 71.5963 95.7276 71.5546C95.6374 71.3151 95.5852 71.0347 95.6269 70.7738L95.625 70.7746ZM95.8993 71.613C95.9044 71.6264 95.9116 71.6351 95.9171 71.6445C95.9203 71.6528 95.9222 71.6579 95.9207 71.664C96.0403 71.8804 96.3066 71.9811 96.5417 71.8909C96.8037 71.7901 96.9327 71.4977 96.8341 71.2409C96.7356 70.9836 96.4428 70.855 96.1808 70.9554C95.924 71.0543 95.795 71.3467 95.8935 71.6035L95.8975 71.6137L95.8993 71.613Z" fill="#F8F8F8"/>
<path d="M86.2144 79.5737L70.5415 85.6371L70.8394 86.4071L86.5123 80.3437L86.2144 79.5737Z" fill="url(#paint11_linear_168_3225)"/>
<path d="M82.2996 83.0562L71.2036 87.3489L71.5014 88.1192L82.5974 83.8264L82.2996 83.0562Z" fill="url(#paint12_linear_168_3225)"/>
<path d="M86.531 64.6407L79.4853 67.3664C79.2726 67.4487 79.1668 67.6878 79.2491 67.9004C79.3313 68.1131 79.5705 68.2188 79.7831 68.1365L86.8288 65.4108C87.0415 65.3285 87.1469 65.0894 87.0647 64.8768C86.9824 64.6642 86.7433 64.5584 86.531 64.6407Z" fill="#3B3B3B"/>
<path d="M99.4423 84.314L62.7202 91.4524L65.5779 106.154L102.3 99.0158L99.4423 84.314Z" fill="url(#paint13_linear_168_3225)"/>
<path opacity="0.2" d="M99.4423 84.314L62.7202 91.4524L65.5779 106.154L102.3 99.0158L99.4423 84.314Z" fill="black"/>
<path d="M102.834 107.814L66.6544 109.645C64.8529 109.737 63.2588 108.489 62.9146 106.718L57.7065 79.9246C57.5836 79.2923 58.2333 78.7898 58.8144 79.0677C59.4888 79.3898 60.2381 79.5264 60.985 79.4634L93.4864 76.6833C95.3317 76.5253 96.9987 77.784 97.352 79.6018L102.836 107.812C102.836 107.813 102.835 107.814 102.834 107.814Z" fill="url(#paint14_linear_168_3225)"/>
<path d="M95.1498 94.619C95.9918 94.4556 96.5233 93.5451 96.3367 92.586C96.1505 91.6269 95.3168 90.982 94.4748 91.1454C93.6327 91.3092 93.1012 92.2193 93.2878 93.1788C93.4744 94.1378 94.3081 94.7827 95.1498 94.619Z" fill="#EBEBEB"/>
<path d="M95.5211 92.745C95.6077 93.1906 95.3606 93.6138 94.9693 93.6895C94.578 93.7656 94.1903 93.466 94.1037 93.0203C94.0171 92.575 94.2642 92.1519 94.6555 92.0758C95.0468 91.9997 95.4345 92.2993 95.5211 92.745Z" fill="#DBDBDB"/>
<defs>
<filter id="filter0_f_168_3225" x="0.56543" y="0.0654297" width="168.87" height="168.87" filterUnits="userSpaceOnUse" color-interpolation-filters="sRGB">
<feFlood flood-opacity="0" result="BackgroundImageFix"/>
<feBlend mode="normal" in="SourceGraphic" in2="BackgroundImageFix" result="shape"/>
<feGaussianBlur stdDeviation="27" result="effect1_foregroundBlur_168_3225"/>
</filter>
<linearGradient id="paint0_linear_168_3225" x1="54.9579" y1="42.8335" x2="118.559" y2="56.073" gradientUnits="userSpaceOnUse">
<stop stop-color="#A259FF"/>
<stop offset="1" stop-color="#3B3B3B"/>
</linearGradient>
<linearGradient id="paint1_linear_168_3225" x1="64.4205" y1="54.0654" x2="123.282" y2="65.4173" gradientUnits="userSpaceOnUse">
<stop stop-color="#A259FF" stop-opacity="0"/>
<stop offset="1" stop-color="#FF6250"/>
</linearGradient>
<linearGradient id="paint2_linear_168_3225" x1="116.771" y1="113.897" x2="122.108" y2="118.088" gradientUnits="userSpaceOnUse">
<stop stop-color="#A259FF"/>
<stop offset="1" stop-color="#377DF7"/>
</linearGradient>
<linearGradient id="paint3_linear_168_3225" x1="56.1583" y1="119.835" x2="55.98" y2="125.145" gradientUnits="userSpaceOnUse">
<stop stop-color="#A259FF"/>
<stop offset="1" stop-color="#377DF7"/>
</linearGradient>
<linearGradient id="paint4_linear_168_3225" x1="118.741" y1="58.8689" x2="124.046" y2="58.5647" gradientUnits="userSpaceOnUse">
<stop stop-color="#A259FF"/>
<stop offset="1" stop-color="#377DF7"/>
</linearGradient>
<linearGradient id="paint5_linear_168_3225" x1="98.6053" y1="83.0755" x2="111.685" y2="85.3371" gradientUnits="userSpaceOnUse">
<stop stop-color="#A259FF"/>
<stop offset="1" stop-color="#3B3B3B"/>
</linearGradient>
<linearGradient id="paint6_linear_168_3225" x1="89.9992" y1="115.984" x2="75.8692" y2="88.236" gradientUnits="userSpaceOnUse">
<stop stop-color="#A259FF"/>
<stop offset="1" stop-color="#3B3B3B"/>
</linearGradient>
<linearGradient id="paint7_linear_168_3225" x1="66.89" y1="68.5214" x2="100.919" y2="65.5822" gradientUnits="userSpaceOnUse">
<stop stop-color="#A259FF"/>
<stop offset="1" stop-color="#FF6250"/>
</linearGradient>
<linearGradient id="paint8_linear_168_3225" x1="93.069" y1="76.7159" x2="96.6407" y2="76.0808" gradientUnits="userSpaceOnUse">
<stop stop-color="#A259FF"/>
<stop offset="1" stop-color="#FF6250"/>
</linearGradient>
<linearGradient id="paint9_linear_168_3225" x1="95.1839" y1="75.8964" x2="98.7553" y2="75.2613" gradientUnits="userSpaceOnUse">
<stop stop-color="#A259FF"/>
<stop offset="1" stop-color="#3B3B3B"/>
</linearGradient>
<linearGradient id="paint10_linear_168_3225" x1="66.5613" y1="72.3684" x2="72.9489" y2="71.7466" gradientUnits="userSpaceOnUse">
<stop stop-color="#A259FF"/>
<stop offset="1" stop-color="#3B3B3B"/>
</linearGradient>
<linearGradient id="paint11_linear_168_3225" x1="73.0789" y1="84.6553" x2="75.492" y2="88.0455" gradientUnits="userSpaceOnUse">
<stop stop-color="#A259FF"/>
<stop offset="1" stop-color="#FF6250"/>
</linearGradient>
<linearGradient id="paint12_linear_168_3225" x1="73" y1="86.654" x2="75.6478" y2="89.7062" gradientUnits="userSpaceOnUse">
<stop stop-color="#A259FF"/>
<stop offset="1" stop-color="#FF6250"/>
</linearGradient>
<linearGradient id="paint13_linear_168_3225" x1="68.6657" y1="90.2966" x2="101.359" y2="98.8864" gradientUnits="userSpaceOnUse">
<stop stop-color="#A259FF"/>
<stop offset="1" stop-color="#3B3B3B"/>
</linearGradient>
<linearGradient id="paint14_linear_168_3225" x1="93.0777" y1="98.8902" x2="36.4423" y2="71.709" gradientUnits="userSpaceOnUse">
<stop stop-color="#A259FF"/>
<stop offset="0.666667" stop-color="white"/>
</linearGradient>
</defs>
</svg>
