<svg width="165" height="164" viewBox="0 0 165 164" fill="none" xmlns="http://www.w3.org/2000/svg">
<path d="M80.0002 121.167C103.012 121.167 121.667 102.512 121.667 79.5002C121.667 56.4883 103.012 37.8335 80.0002 37.8335C56.9883 37.8335 38.3335 56.4883 38.3335 79.5002C38.3335 102.512 56.9883 121.167 80.0002 121.167Z" fill="url(#paint0_linear_168_3300)"/>
<g filter="url(#filter0_f_168_3300)">
<path d="M82.5362 109.935C97.9442 109.935 110.435 97.4442 110.435 82.0362C110.435 66.6283 97.9442 54.1377 82.5362 54.1377C67.1283 54.1377 54.6377 66.6283 54.6377 82.0362C54.6377 97.4442 67.1283 109.935 82.5362 109.935Z" fill="url(#paint1_linear_168_3300)"/>
</g>
<path fill-rule="evenodd" clip-rule="evenodd" d="M52.4989 62.3187C53.196 62.3187 53.7611 61.7536 53.7611 61.0565C53.7611 60.3594 53.196 59.7943 52.4989 59.7943C51.8018 59.7943 51.2367 60.3594 51.2367 61.0565C51.2367 61.7536 51.8018 62.3187 52.4989 62.3187ZM52.4989 63.2654C53.7188 63.2654 54.7078 62.2764 54.7078 61.0565C54.7078 59.8366 53.7188 58.8477 52.4989 58.8477C51.279 58.8477 50.29 59.8366 50.29 61.0565C50.29 62.2764 51.279 63.2654 52.4989 63.2654Z" fill="white"/>
<path fill-rule="evenodd" clip-rule="evenodd" d="M48.513 101.449C49.2101 101.449 49.7752 100.884 49.7752 100.187C49.7752 99.4896 49.2101 98.9248 48.513 98.9248C47.816 98.9248 47.2509 99.4896 47.2509 100.187C47.2509 100.884 47.816 101.449 48.513 101.449ZM48.513 102.396C49.733 102.396 50.7219 101.407 50.7219 100.187C50.7219 98.9668 49.733 97.978 48.513 97.978C47.2931 97.978 46.3042 98.9668 46.3042 100.187C46.3042 101.407 47.2931 102.396 48.513 102.396Z" fill="white"/>
<path fill-rule="evenodd" clip-rule="evenodd" d="M107.209 48.1883C107.906 48.1883 108.471 47.6232 108.471 46.9261C108.471 46.2291 107.906 45.664 107.209 45.664C106.512 45.664 105.947 46.2291 105.947 46.9261C105.947 47.6232 106.512 48.1883 107.209 48.1883ZM107.209 49.135C108.429 49.135 109.418 48.1461 109.418 46.9261C109.418 45.7062 108.429 44.7173 107.209 44.7173C105.989 44.7173 105 45.7062 105 46.9261C105 48.1461 105.989 49.135 107.209 49.135Z" fill="white"/>
<path d="M53.6923 44.7855C53.7851 44.4009 54.3322 44.4009 54.425 44.7855L54.7375 46.0799C54.7707 46.2174 54.878 46.3247 55.0154 46.3579L56.3098 46.6703C56.6944 46.7632 56.6944 47.3102 56.3098 47.4031L55.0154 47.7155C54.878 47.7487 54.7707 47.856 54.7375 47.9935L54.425 49.2879C54.3322 49.6725 53.7851 49.6725 53.6923 49.2879L53.3798 47.9935C53.3467 47.856 53.2393 47.7487 53.1019 47.7155L51.8075 47.4031C51.4229 47.3102 51.4229 46.7632 51.8075 46.6703L53.1019 46.3579C53.2393 46.3247 53.3467 46.2174 53.3798 46.0799L53.6923 44.7855Z" fill="white"/>
<path d="M111.991 57.9753C112.092 57.5538 112.692 57.5538 112.794 57.9753L113.136 59.3942C113.173 59.5448 113.29 59.6625 113.441 59.6989L114.86 60.0414C115.281 60.1431 115.281 60.7427 114.86 60.8445L113.441 61.187C113.29 61.2234 113.173 61.341 113.136 61.4917L112.794 62.9105C112.692 63.3321 112.092 63.3321 111.991 62.9105L111.648 61.4917C111.612 61.341 111.494 61.2234 111.343 61.187L109.924 60.8445C109.503 60.7427 109.503 60.1431 109.924 60.0414L111.343 59.6989C111.494 59.6625 111.612 59.5448 111.648 59.3942L111.991 57.9753Z" fill="url(#paint2_linear_168_3300)"/>
<path d="M49.9389 109.659C50.4187 109.582 50.8016 110.053 50.6283 110.507L49.4584 113.57C49.285 114.024 48.6854 114.12 48.379 113.743L46.3109 111.198C46.0045 110.821 46.2212 110.254 46.7009 110.177L49.9389 109.659Z" fill="url(#paint3_linear_168_3300)"/>
<path d="M106.441 102.691C106.321 102.22 106.756 101.796 107.223 101.927L110.381 102.814C110.848 102.946 110.998 103.534 110.65 103.873L108.304 106.164C107.956 106.503 107.372 106.339 107.251 105.868L106.441 102.691Z" fill="url(#paint4_linear_168_3300)"/>
<g filter="url(#filter1_f_168_3300)">
<path d="M102.111 111.553C102.111 113.788 91.506 115.6 78.4248 115.6C65.3437 115.6 54.7393 113.788 54.7393 111.553C54.7393 109.317 65.3437 107.505 78.4248 107.505C91.506 107.505 102.111 109.317 102.111 111.553Z" fill="url(#paint5_radial_168_3300)"/>
</g>
<g filter="url(#filter2_i_168_3300)">
<path d="M78.8861 53.4461L63.459 56.1663C62.2197 56.3849 61.3922 57.5667 61.6107 58.8061L65.4988 80.8564C65.7173 82.0959 66.8992 82.9235 68.1385 82.7046L83.5654 79.9847C84.8049 79.7662 85.6325 78.5843 85.414 77.3448L81.5259 55.2945C81.3071 54.0552 80.1252 53.2276 78.8861 53.4461Z" fill="url(#paint6_linear_168_3300)"/>
</g>
<path d="M79.1089 64.7809L67.125 66.894C66.7214 66.9652 66.452 67.35 66.5231 67.7536L66.5235 67.7559C66.5947 68.1595 66.9795 68.4289 67.383 68.3578L79.3672 66.2447C79.7705 66.1735 80.04 65.7887 79.969 65.3851L79.9687 65.3828C79.8973 64.9792 79.5125 64.7098 79.1089 64.7809Z" fill="url(#paint7_linear_168_3300)"/>
<path d="M80.9322 75.079L69.0513 77.1739C68.6512 77.2445 68.3828 77.6185 68.4517 78.0094L68.4521 78.0119C68.5211 78.4029 68.9013 78.6627 69.3013 78.592L81.1822 76.4971C81.5826 76.4264 81.8507 76.0525 81.7819 75.6616L81.7815 75.659C81.7127 75.2681 81.3322 75.0083 80.9322 75.079Z" fill="url(#paint8_linear_168_3300)"/>
<path d="M79.9822 69.6908L68.1011 71.7857C67.701 71.8563 67.4326 72.2302 67.5015 72.6212L67.5019 72.6237C67.5708 73.0147 67.951 73.2745 68.3511 73.2038L80.2322 71.1089C80.6322 71.0382 80.9007 70.6642 80.8319 70.2732L80.8315 70.2709C80.7623 69.88 80.3822 69.6202 79.9822 69.6908Z" fill="url(#paint9_linear_168_3300)"/>
<path d="M70.1623 58.4955L66.6603 59.113C65.8845 59.2498 65.3666 59.9896 65.5033 60.7653L65.6747 61.7372C65.8115 62.5129 66.5512 63.0309 67.327 62.8941L70.829 62.2766C71.6047 62.1398 72.1228 61.4001 71.9859 60.6243L71.8145 59.6525C71.6779 58.8767 70.9381 58.3588 70.1623 58.4955Z" fill="#A259FF"/>
<g filter="url(#filter3_i_168_3300)">
<path d="M97.2712 59.5264H76.8603C75.9092 59.5264 75.1382 60.2974 75.1382 61.2485V70.8423C75.1382 71.7934 75.9092 72.5644 76.8603 72.5644H97.2712C98.2222 72.5644 98.9933 71.7934 98.9933 70.8423V61.2485C98.9933 60.2974 98.2222 59.5264 97.2712 59.5264Z" fill="url(#paint10_linear_168_3300)"/>
</g>
<path d="M80.1755 68.0238C81.269 68.0238 82.1556 67.1373 82.1556 66.0439C82.1556 64.9504 81.269 64.064 80.1755 64.064C79.082 64.064 78.1958 64.9504 78.1958 66.0439C78.1958 67.1373 79.082 68.0238 80.1755 68.0238Z" fill="white"/>
<path d="M87.2516 68.0238C88.345 68.0238 89.2313 67.1373 89.2313 66.0439C89.2313 64.9504 88.345 64.064 87.2516 64.064C86.1581 64.064 85.2715 64.9504 85.2715 66.0439C85.2715 67.1373 86.1581 68.0238 87.2516 68.0238Z" fill="white"/>
<path d="M94.3268 68.0238C95.4202 68.0238 96.3065 67.1373 96.3065 66.0439C96.3065 64.9504 95.4202 64.064 94.3268 64.064C93.2333 64.064 92.3467 64.9504 92.3467 66.0439C92.3467 67.1373 93.2333 68.0238 94.3268 68.0238Z" fill="white"/>
<path fill-rule="evenodd" clip-rule="evenodd" d="M76.4555 93.9978C76.6266 93.0271 77.5519 92.3793 78.5226 92.5503L88.7179 94.3482C90.111 94.5938 91.37 95.2405 92.2624 96.1753C93.1545 97.1094 93.7588 98.4373 93.4997 99.9076C93.2403 101.378 92.2182 102.419 91.061 102.992C89.9026 103.566 88.4979 103.744 87.1045 103.499L62.8791 99.2268C61.9086 99.0558 61.2606 98.13 61.4317 97.1597C61.6028 96.1891 62.5283 95.5413 63.4988 95.7123L87.7244 99.984C88.4468 100.111 89.0689 99.9967 89.4773 99.7945C89.886 99.592 89.97 99.3753 89.9853 99.288C90.0005 99.2011 89.9961 98.9695 89.6816 98.6398C89.3671 98.3105 88.8215 97.9902 88.0983 97.8626L77.861 95.7014C76.8907 95.5304 76.2842 94.9681 76.4555 93.9978Z" fill="url(#paint11_linear_168_3300)"/>
<path fill-rule="evenodd" clip-rule="evenodd" d="M96.1483 75.8319C96.5317 75.0084 97.4208 74.5453 98.3154 74.7029L106.308 76.1124C107.399 76.3047 108.128 77.3453 107.936 78.437C107.743 79.5283 106.703 80.2569 105.611 80.0645L99.1356 78.9225L95.3103 87.1337C94.8425 88.1384 93.6487 88.5732 92.644 88.1055C91.6396 87.6374 91.2045 86.4435 91.6726 85.4392L96.1483 75.8319Z" fill="url(#paint12_linear_168_3300)"/>
<path d="M67.6593 106.335C70.0236 106.752 72.2782 105.173 72.6953 102.809C73.1119 100.445 71.5333 98.1904 69.169 97.7733C66.8047 97.3563 64.5501 98.9353 64.1332 101.299C63.7163 103.664 65.295 105.918 67.6593 106.335Z" fill="url(#paint13_linear_168_3300)"/>
<path d="M94.3043 79.4597L64.803 74.2579C62.5916 73.8681 60.6274 75.4557 60.7814 77.5061L61.1499 89.4717C61.2616 90.9528 62.4704 92.2025 64.0675 92.484L89.7833 98.7539L96.9786 83.8941C98.6366 80.8847 96.521 79.8507 94.3043 79.4597Z" fill="url(#paint14_linear_168_3300)"/>
<path d="M67.9154 104.19C69.1032 104.4 70.2359 103.607 70.4454 102.419C70.6548 101.231 69.8617 100.098 68.6739 99.889C67.486 99.6796 66.3534 100.473 66.1439 101.661C65.9344 102.848 66.7276 103.981 67.9154 104.19Z" fill="url(#paint15_linear_168_3300)"/>
<mask id="mask0_168_3300" style="mask-type:alpha" maskUnits="userSpaceOnUse" x="60" y="74" width="38" height="25">
<path d="M94.3045 79.4597L64.803 74.2579C62.5916 73.8681 60.6274 75.4557 60.7814 77.5061L61.1499 89.4717C61.2616 90.9528 62.4704 92.2025 64.0675 92.484L89.7831 98.7539L96.9788 83.8941C97.8255 82.0148 96.5211 79.8507 94.3045 79.4597Z" fill="url(#paint16_linear_168_3300)"/>
</mask>
<g mask="url(#mask0_168_3300)">
<path d="M80.0305 87.3497C80.1584 86.6722 80.8116 86.2251 81.4895 86.3501C82.1671 86.4754 82.6127 87.1261 82.4848 87.8033L80.7961 96.7356C80.6682 97.4127 80.0149 97.8602 79.3374 97.7348C78.6595 97.6098 78.2138 96.9591 78.3417 96.2819L80.0305 87.3497Z" fill="#A259FF"/>
<path d="M102.069 81.5404C102.635 81.6386 103.016 82.1774 102.92 82.7437L102.851 83.1539C102.755 83.7202 102.218 84.0995 101.652 84.0013L60.4027 76.8372C59.8368 76.7386 59.4559 76.1999 59.5519 75.6339L59.6214 75.2238C59.7174 74.6575 60.254 74.2781 60.8198 74.3763L102.069 81.5404Z" fill="#A259FF"/>
<path d="M86.9724 88.6043C87.1003 87.9271 87.7535 87.4797 88.4311 87.605C89.109 87.7304 89.5546 88.3811 89.4264 89.0583L87.738 97.9905C87.6101 98.6677 86.9568 99.1152 86.2789 98.9898C85.6014 98.8648 85.1557 98.2141 85.2836 97.5369L86.9724 88.6043Z" fill="#A259FF"/>
<path d="M73.0891 86.0953C73.217 85.4181 73.8702 84.9706 74.5478 85.0956C75.2257 85.221 75.6713 85.8717 75.5431 86.5489L73.8547 95.4812C73.7268 96.1583 73.0735 96.6058 72.3956 96.4808C71.7181 96.3554 71.2724 95.7047 71.4003 95.0275L73.0891 86.0953Z" fill="#A259FF"/>
<path d="M66.0679 84.8575C66.1959 84.1803 66.8491 83.7329 67.5269 83.8579C68.2046 83.9832 68.6502 84.6339 68.5222 85.3111L66.8336 94.2434C66.7056 94.9205 66.0524 95.368 65.3747 95.243C64.697 95.1176 64.2513 94.4669 64.3794 93.7897L66.0679 84.8575Z" fill="#A259FF"/>
<path d="M59.9714 74.3836C60.1011 73.6481 60.8023 73.1572 61.5376 73.2869L97.5882 79.6434C98.3234 79.7731 98.8143 80.4746 98.6846 81.2097C98.5549 81.9452 97.8538 82.4362 97.1187 82.3065L61.0681 75.9496C60.3328 75.8202 59.8418 75.1188 59.9714 74.3836Z" fill="url(#paint17_linear_168_3300)"/>
</g>
<defs>
<filter id="filter0_f_168_3300" x="0.637695" y="0.137695" width="163.797" height="163.797" filterUnits="userSpaceOnUse" color-interpolation-filters="sRGB">
<feFlood flood-opacity="0" result="BackgroundImageFix"/>
<feBlend mode="normal" in="SourceGraphic" in2="BackgroundImageFix" result="shape"/>
<feGaussianBlur stdDeviation="27" result="effect1_foregroundBlur_168_3300"/>
</filter>
<filter id="filter1_f_168_3300" x="34.0519" y="86.818" width="88.7464" height="49.4695" filterUnits="userSpaceOnUse" color-interpolation-filters="sRGB">
<feFlood flood-opacity="0" result="BackgroundImageFix"/>
<feBlend mode="normal" in="SourceGraphic" in2="BackgroundImageFix" result="shape"/>
<feGaussianBlur stdDeviation="10.3437" result="effect1_foregroundBlur_168_3300"/>
</filter>
<filter id="filter2_i_168_3300" x="61.5757" y="53.4111" width="26.2576" height="34.8926" filterUnits="userSpaceOnUse" color-interpolation-filters="sRGB">
<feFlood flood-opacity="0" result="BackgroundImageFix"/>
<feBlend mode="normal" in="SourceGraphic" in2="BackgroundImageFix" result="shape"/>
<feColorMatrix in="SourceAlpha" type="matrix" values="0 0 0 0 0 0 0 0 0 0 0 0 0 0 0 0 0 0 127 0" result="hardAlpha"/>
<feOffset dx="2.38455" dy="5.56394"/>
<feGaussianBlur stdDeviation="5.96137"/>
<feComposite in2="hardAlpha" operator="arithmetic" k2="-1" k3="1"/>
<feColorMatrix type="matrix" values="0 0 0 0 0.104618 0 0 0 0 0.465612 0 0 0 0 0.545833 0 0 0 0.15 0"/>
<feBlend mode="normal" in2="shape" result="effect1_innerShadow_168_3300"/>
</filter>
<filter id="filter3_i_168_3300" x="75.1382" y="59.5264" width="29.4808" height="16.7886" filterUnits="userSpaceOnUse" color-interpolation-filters="sRGB">
<feFlood flood-opacity="0" result="BackgroundImageFix"/>
<feBlend mode="normal" in="SourceGraphic" in2="BackgroundImageFix" result="shape"/>
<feColorMatrix in="SourceAlpha" type="matrix" values="0 0 0 0 0 0 0 0 0 0 0 0 0 0 0 0 0 0 127 0" result="hardAlpha"/>
<feOffset dx="5.62585" dy="3.75056"/>
<feGaussianBlur stdDeviation="6.09467"/>
<feComposite in2="hardAlpha" operator="arithmetic" k2="-1" k3="1"/>
<feColorMatrix type="matrix" values="0 0 0 0 0.104618 0 0 0 0 0.465612 0 0 0 0 0.545833 0 0 0 0.09 0"/>
<feBlend mode="normal" in2="shape" result="effect1_innerShadow_168_3300"/>
</filter>
<linearGradient id="paint0_linear_168_3300" x1="49.9579" y1="37.8335" x2="113.559" y2="51.073" gradientUnits="userSpaceOnUse">
<stop stop-color="#A259FF"/>
<stop offset="1" stop-color="#3B3B3B"/>
</linearGradient>
<linearGradient id="paint1_linear_168_3300" x1="94.4928" y1="104.621" x2="75.8859" y2="102.5" gradientUnits="userSpaceOnUse">
<stop stop-color="#A259FF" stop-opacity="0"/>
<stop offset="1" stop-color="#FF6250"/>
</linearGradient>
<linearGradient id="paint2_linear_168_3300" x1="113.582" y1="58.8964" x2="118.919" y2="63.0883" gradientUnits="userSpaceOnUse">
<stop stop-color="#A259FF"/>
<stop offset="1" stop-color="#377DF7"/>
</linearGradient>
<linearGradient id="paint3_linear_168_3300" x1="50.4337" y1="111.212" x2="50.2554" y2="116.522" gradientUnits="userSpaceOnUse">
<stop stop-color="#A259FF"/>
<stop offset="1" stop-color="#377DF7"/>
</linearGradient>
<linearGradient id="paint4_linear_168_3300" x1="107.944" y1="102.057" x2="113.248" y2="101.753" gradientUnits="userSpaceOnUse">
<stop stop-color="#A259FF"/>
<stop offset="1" stop-color="#377DF7"/>
</linearGradient>
<radialGradient id="paint5_radial_168_3300" cx="0" cy="0" r="1" gradientUnits="userSpaceOnUse" gradientTransform="translate(78.4248 111.553) rotate(90) scale(4.04753 23.6857)">
<stop stop-color="#2B2B2B"/>
<stop offset="1" stop-color="#2B2B2B" stop-opacity="0"/>
</radialGradient>
<linearGradient id="paint6_linear_168_3300" x1="64.4393" y1="55.9935" x2="84.5031" y2="55.3752" gradientUnits="userSpaceOnUse">
<stop stop-color="#A259FF"/>
<stop offset="1" stop-color="#3B3B3B"/>
</linearGradient>
<linearGradient id="paint7_linear_168_3300" x1="77.3082" y1="66.1808" x2="75.9911" y2="62.2769" gradientUnits="userSpaceOnUse">
<stop stop-color="#A259FF"/>
<stop offset="0.666667" stop-color="white"/>
</linearGradient>
<linearGradient id="paint8_linear_168_3300" x1="79.1428" y1="76.4431" x2="77.879" y2="72.6547" gradientUnits="userSpaceOnUse">
<stop stop-color="#A259FF"/>
<stop offset="0.666667" stop-color="white"/>
</linearGradient>
<linearGradient id="paint9_linear_168_3300" x1="78.1924" y1="71.0549" x2="76.9286" y2="67.2665" gradientUnits="userSpaceOnUse">
<stop stop-color="#A259FF"/>
<stop offset="0.666667" stop-color="white"/>
</linearGradient>
<linearGradient id="paint10_linear_168_3300" x1="75.1382" y1="75.4934" x2="89.8175" y2="53.4622" gradientUnits="userSpaceOnUse">
<stop stop-color="#A259FF"/>
<stop offset="1" stop-color="#FF6250"/>
</linearGradient>
<linearGradient id="paint11_linear_168_3300" x1="86.77" y1="100.77" x2="81.7374" y2="77.1507" gradientUnits="userSpaceOnUse">
<stop stop-color="#A259FF"/>
<stop offset="0.666667" stop-color="white"/>
</linearGradient>
<linearGradient id="paint12_linear_168_3300" x1="103.544" y1="78.841" x2="115.16" y2="92.3616" gradientUnits="userSpaceOnUse">
<stop stop-color="#A259FF"/>
<stop offset="1" stop-color="#377DF7"/>
</linearGradient>
<linearGradient id="paint13_linear_168_3300" x1="70.6374" y1="104.363" x2="60.708" y2="94.2179" gradientUnits="userSpaceOnUse">
<stop stop-color="#A259FF"/>
<stop offset="0.666667" stop-color="white"/>
</linearGradient>
<linearGradient id="paint14_linear_168_3300" x1="88.0887" y1="92.7713" x2="68.13" y2="52.981" gradientUnits="userSpaceOnUse">
<stop stop-color="#A259FF"/>
<stop offset="0.666667" stop-color="white"/>
</linearGradient>
<linearGradient id="paint15_linear_168_3300" x1="65.8252" y1="102.713" x2="72.0223" y2="103.907" gradientUnits="userSpaceOnUse">
<stop stop-color="white"/>
<stop offset="1" stop-color="#BCF3FF"/>
</linearGradient>
<linearGradient id="paint16_linear_168_3300" x1="60.5222" y1="78.2061" x2="97.0596" y2="85.0996" gradientUnits="userSpaceOnUse">
<stop stop-color="#AFF1FF"/>
<stop offset="1" stop-color="#65C8DE"/>
</linearGradient>
<linearGradient id="paint17_linear_168_3300" x1="90.7603" y1="80.4086" x2="91.3545" y2="72.8854" gradientUnits="userSpaceOnUse">
<stop stop-color="#A259FF"/>
<stop offset="0.666667" stop-color="white"/>
</linearGradient>
</defs>
</svg>
