<svg width="81" height="80" viewBox="0 0 81 80" fill="none" xmlns="http://www.w3.org/2000/svg">
<path d="M65.5 65H15.5C14.1739 65 12.9021 64.4732 11.9645 63.5355C11.0268 62.5979 10.5 61.3261 10.5 60V25C10.5 23.6739 11.0268 22.4021 11.9645 21.4645C12.9021 20.5268 14.1739 20 15.5 20H25.5L30.5 12.5H50.5L55.5 20H65.5C66.8261 20 68.0979 20.5268 69.0355 21.4645C69.9732 22.4021 70.5 23.6739 70.5 25V60C70.5 61.3261 69.9732 62.5979 69.0355 63.5355C68.0979 64.4732 66.8261 65 65.5 65Z" stroke="white" stroke-width="3" stroke-linecap="round" stroke-linejoin="round"/>
<path d="M40.5 52.5C46.7132 52.5 51.75 47.4632 51.75 41.25C51.75 35.0368 46.7132 30 40.5 30C34.2868 30 29.25 35.0368 29.25 41.25C29.25 47.4632 34.2868 52.5 40.5 52.5Z" stroke="white" stroke-width="3" stroke-linecap="round" stroke-linejoin="round"/>
</svg>
