<svg width="183" height="24" viewBox="0 0 183 24" fill="none" xmlns="http://www.w3.org/2000/svg">
<path fill-rule="evenodd" clip-rule="evenodd" d="M4.5 9.33765C4.91421 9.33765 5.25 9.67343 5.25 10.0876V19.5001H18.75V10.0876C18.75 9.67343 19.0858 9.33765 19.5 9.33765C19.9142 9.33765 20.25 9.67343 20.25 10.0876V19.5001C20.25 19.898 20.092 20.2795 19.8107 20.5608C19.5294 20.8421 19.1478 21.0001 18.75 21.0001H5.25C4.85218 21.0001 4.47065 20.8421 4.18934 20.5608C3.90804 20.2795 3.75 19.898 3.75 19.5001V10.0876C3.75 9.67343 4.08579 9.33765 4.5 9.33765Z" fill="#A259FF"/>
<path fill-rule="evenodd" clip-rule="evenodd" d="M2.25 3.75C2.25 3.33579 2.58579 3 3 3H21C21.4142 3 21.75 3.33579 21.75 3.75C21.75 4.16421 21.4142 4.5 21 4.5H3C2.58579 4.5 2.25 4.16421 2.25 3.75Z" fill="#A259FF"/>
<path fill-rule="evenodd" clip-rule="evenodd" d="M3 5.25C3.41421 5.25 3.75 5.58579 3.75 6V7.5C3.75 8.09674 3.98705 8.66903 4.40901 9.09099C4.83097 9.51295 5.40326 9.75 6 9.75C6.59674 9.75 7.16903 9.51295 7.59099 9.09099C8.01295 8.66903 8.25 8.09674 8.25 7.5V6C8.25 5.58579 8.58579 5.25 9 5.25C9.41421 5.25 9.75 5.58579 9.75 6V7.5C9.75 8.49456 9.35491 9.44839 8.65165 10.1516C7.94839 10.8549 6.99456 11.25 6 11.25C5.00544 11.25 4.05161 10.8549 3.34835 10.1516C2.64509 9.44839 2.25 8.49456 2.25 7.5V6C2.25 5.58579 2.58579 5.25 3 5.25Z" fill="#A259FF"/>
<path fill-rule="evenodd" clip-rule="evenodd" d="M9 5.25C9.41421 5.25 9.75 5.58579 9.75 6V7.5C9.75 8.09674 9.98705 8.66903 10.409 9.09099C10.831 9.51295 11.4033 9.75 12 9.75C12.5967 9.75 13.169 9.51295 13.591 9.09099C14.0129 8.66903 14.25 8.09674 14.25 7.5V6C14.25 5.58579 14.5858 5.25 15 5.25C15.4142 5.25 15.75 5.58579 15.75 6V7.5C15.75 8.49456 15.3549 9.44839 14.6516 10.1516C13.9484 10.8549 12.9946 11.25 12 11.25C11.0054 11.25 10.0516 10.8549 9.34835 10.1516C8.64509 9.44839 8.25 8.49456 8.25 7.5V6C8.25 5.58579 8.58579 5.25 9 5.25Z" fill="#A259FF"/>
<path fill-rule="evenodd" clip-rule="evenodd" d="M15 5.25C15.4142 5.25 15.75 5.58579 15.75 6V7.5C15.75 8.09674 15.9871 8.66903 16.409 9.09099C16.831 9.51295 17.4033 9.75 18 9.75C18.5967 9.75 19.169 9.51295 19.591 9.09099C20.0129 8.66903 20.25 8.09674 20.25 7.5V6C20.25 5.58579 20.5858 5.25 21 5.25C21.4142 5.25 21.75 5.58579 21.75 6V7.5C21.75 8.49456 21.3549 9.44839 20.6516 10.1516C19.9484 10.8549 18.9946 11.25 18 11.25C17.0054 11.25 16.0516 10.8549 15.3484 10.1516C14.6451 9.44839 14.25 8.49456 14.25 7.5V6C14.25 5.58579 14.5858 5.25 15 5.25Z" fill="#A259FF"/>
<path d="M38.61 16.9107H38.907V6.44971H41.085V17.9997H36.828L35.475 7.53871H35.178V17.9997H33V6.44971H37.257L38.61 16.9107Z" fill="white"/>
<path d="M43.5485 6.44971H50.9405V8.52871H45.7265V11.1687H50.8415V13.2477H45.7265V17.9997H43.5485V6.44971Z" fill="white"/>
<path d="M53.0906 6.44971H61.4066V8.52871H58.3376V17.9997H56.1596V8.52871H53.0906V6.44971Z" fill="white"/>
<path d="M72.7686 6.44971H76.5966L77.2566 15.1287V16.8117H77.6526V15.1287L78.3126 6.44971H82.1406V17.9997H80.1606V10.2777L80.3586 7.63771H79.9626L79.1046 17.9997H75.8376L74.9466 7.63771H74.5506L74.7486 10.2777V17.9997H72.7686V6.44971Z" fill="white"/>
<path d="M89.0921 16.8117C88.8721 17.3287 88.5641 17.6972 88.1681 17.9172C87.7721 18.1262 87.3101 18.2307 86.7821 18.2307C86.2871 18.2307 85.8196 18.1372 85.3796 17.9502C84.9506 17.7632 84.5711 17.4882 84.2411 17.1252C83.9111 16.7622 83.6471 16.3222 83.4491 15.8052C83.2621 15.2882 83.1686 14.6997 83.1686 14.0397V13.7757C83.1686 13.1267 83.2621 12.5437 83.4491 12.0267C83.6361 11.5097 83.8891 11.0697 84.2081 10.7067C84.5271 10.3437 84.8956 10.0687 85.3136 9.88171C85.7426 9.68371 86.1991 9.58471 86.6831 9.58471C87.2661 9.58471 87.7336 9.68371 88.0856 9.88171C88.4486 10.0797 88.7346 10.3877 88.9436 10.8057H89.2406V9.81571H91.3196V15.5247C91.3196 15.8547 91.4681 16.0197 91.7651 16.0197H92.0786V17.9997H90.6596C90.2856 17.9997 89.9776 17.8897 89.7356 17.6697C89.5046 17.4497 89.3891 17.1637 89.3891 16.8117H89.0921ZM87.2441 16.2507C87.8491 16.2507 88.3331 16.0527 88.6961 15.6567C89.0591 15.2497 89.2406 14.6997 89.2406 14.0067V13.8087C89.2406 13.1157 89.0591 12.5712 88.6961 12.1752C88.3331 11.7682 87.8491 11.5647 87.2441 11.5647C86.6391 11.5647 86.1551 11.7682 85.7921 12.1752C85.4291 12.5712 85.2476 13.1157 85.2476 13.8087V14.0067C85.2476 14.6997 85.4291 15.2497 85.7921 15.6567C86.1551 16.0527 86.6391 16.2507 87.2441 16.2507Z" fill="white"/>
<path d="M93.5027 9.81571H96.9677V11.0037H97.2647C97.4187 10.5527 97.6772 10.2062 98.0402 9.96421C98.4142 9.71121 98.8597 9.58471 99.3767 9.58471C100.191 9.58471 100.845 9.84321 101.34 10.3602C101.835 10.8662 102.083 11.6417 102.083 12.6867V13.0497L99.9377 13.2477V13.0167C99.9377 12.5657 99.8222 12.2082 99.5912 11.9442C99.3602 11.6692 99.0137 11.5317 98.5517 11.5317C98.0897 11.5317 97.7267 11.6912 97.4627 12.0102C97.1987 12.3292 97.0667 12.7857 97.0667 13.3797V16.0197H98.9477V17.9997H93.3047V16.0197H94.9877V11.7957H93.5027V9.81571Z" fill="white"/>
<path d="M106.741 12.8187H107.137L109.315 9.81571H111.592V9.91471L108.952 13.6602V13.9572L111.856 17.9007V17.9997H109.48L107.137 14.7987H106.741V17.9997H104.662V6.44971H106.741V12.8187Z" fill="white"/>
<path d="M115.936 14.5842C115.947 14.8262 116.002 15.0517 116.101 15.2607C116.211 15.4587 116.354 15.6347 116.53 15.7887C116.717 15.9317 116.926 16.0472 117.157 16.1352C117.399 16.2122 117.652 16.2507 117.916 16.2507C118.433 16.2507 118.829 16.1627 119.104 15.9867C119.379 15.7997 119.577 15.5797 119.698 15.3267L121.48 16.3167C121.381 16.5257 121.244 16.7457 121.068 16.9767C120.892 17.1967 120.661 17.4002 120.375 17.5872C120.1 17.7742 119.759 17.9282 119.352 18.0492C118.956 18.1702 118.488 18.2307 117.949 18.2307C117.333 18.2307 116.772 18.1317 116.266 17.9337C115.76 17.7357 115.32 17.4497 114.946 17.0757C114.583 16.7017 114.297 16.2452 114.088 15.7062C113.89 15.1672 113.791 14.5567 113.791 13.8747V13.7757C113.791 13.1487 113.896 12.5767 114.105 12.0597C114.325 11.5427 114.622 11.1027 114.996 10.7397C115.37 10.3767 115.804 10.0962 116.299 9.89821C116.805 9.68921 117.344 9.58471 117.916 9.58471C118.62 9.58471 119.225 9.71121 119.731 9.96421C120.237 10.2062 120.655 10.5197 120.985 10.9047C121.315 11.2787 121.557 11.6967 121.711 12.1587C121.865 12.6097 121.942 13.0497 121.942 13.4787V14.5842H115.936ZM117.9 11.4657C117.372 11.4657 116.943 11.6032 116.613 11.8782C116.283 12.1422 116.068 12.4502 115.969 12.8022H119.83C119.764 12.4172 119.555 12.0982 119.203 11.8452C118.862 11.5922 118.428 11.4657 117.9 11.4657Z" fill="white"/>
<path d="M123.977 9.81571H126.402V6.44971H128.481V9.81571H131.435V11.7957H128.481V15.5247C128.481 15.8547 128.63 16.0197 128.927 16.0197H131.138V17.9997H127.673C127.299 17.9997 126.991 17.8787 126.749 17.6367C126.518 17.3947 126.402 17.0867 126.402 16.7127V11.7957H123.977V9.81571Z" fill="white"/>
<path d="M135.961 21.2997H133.882V9.81571H135.961V11.0037H136.258C136.478 10.5527 136.797 10.2062 137.215 9.96421C137.633 9.71121 138.166 9.58471 138.815 9.58471C139.299 9.58471 139.756 9.67821 140.185 9.86521C140.625 10.0522 141.004 10.3272 141.323 10.6902C141.653 11.0422 141.912 11.4767 142.099 11.9937C142.297 12.5107 142.396 13.0992 142.396 13.7592V14.0562C142.396 14.7272 142.302 15.3212 142.115 15.8382C141.928 16.3552 141.675 16.7952 141.356 17.1582C141.037 17.5102 140.658 17.7797 140.218 17.9667C139.789 18.1427 139.321 18.2307 138.815 18.2307C138.441 18.2307 138.117 18.1922 137.842 18.1152C137.567 18.0382 137.325 17.9337 137.116 17.8017C136.918 17.6697 136.747 17.5212 136.604 17.3562C136.472 17.1802 136.357 16.9987 136.258 16.8117H135.961V21.2997ZM138.139 16.2507C138.788 16.2507 139.31 16.0527 139.706 15.6567C140.113 15.2497 140.317 14.6997 140.317 14.0067V13.8087C140.317 13.1157 140.113 12.5712 139.706 12.1752C139.31 11.7682 138.788 11.5647 138.139 11.5647C137.49 11.5647 136.962 11.7737 136.555 12.1917C136.159 12.5987 135.961 13.1377 135.961 13.8087V14.0067C135.961 14.6777 136.159 15.2222 136.555 15.6402C136.962 16.0472 137.49 16.2507 138.139 16.2507Z" fill="white"/>
<path d="M144.364 16.0197H147.235V8.42971H144.463V6.44971H149.314V16.0197H151.987V17.9997H144.364V16.0197Z" fill="white"/>
<path d="M159.813 16.8117C159.593 17.3287 159.285 17.6972 158.889 17.9172C158.493 18.1262 158.031 18.2307 157.503 18.2307C157.008 18.2307 156.541 18.1372 156.101 17.9502C155.672 17.7632 155.292 17.4882 154.962 17.1252C154.632 16.7622 154.368 16.3222 154.17 15.8052C153.983 15.2882 153.89 14.6997 153.89 14.0397V13.7757C153.89 13.1267 153.983 12.5437 154.17 12.0267C154.357 11.5097 154.61 11.0697 154.929 10.7067C155.248 10.3437 155.617 10.0687 156.035 9.88171C156.464 9.68371 156.92 9.58471 157.404 9.58471C157.987 9.58471 158.455 9.68371 158.807 9.88171C159.17 10.0797 159.456 10.3877 159.665 10.8057H159.962V9.81571H162.041V15.5247C162.041 15.8547 162.189 16.0197 162.486 16.0197H162.8V17.9997H161.381C161.007 17.9997 160.699 17.8897 160.457 17.6697C160.226 17.4497 160.11 17.1637 160.11 16.8117H159.813ZM157.965 16.2507C158.57 16.2507 159.054 16.0527 159.417 15.6567C159.78 15.2497 159.962 14.6997 159.962 14.0067V13.8087C159.962 13.1157 159.78 12.5712 159.417 12.1752C159.054 11.7682 158.57 11.5647 157.965 11.5647C157.36 11.5647 156.876 11.7682 156.513 12.1752C156.15 12.5712 155.969 13.1157 155.969 13.8087V14.0067C155.969 14.6997 156.15 15.2497 156.513 15.6567C156.876 16.0527 157.36 16.2507 157.965 16.2507Z" fill="white"/>
<path d="M172.606 14.9967C172.419 15.9647 171.973 16.7457 171.269 17.3397C170.576 17.9337 169.647 18.2307 168.481 18.2307C167.876 18.2307 167.309 18.1372 166.781 17.9502C166.264 17.7632 165.813 17.4937 165.428 17.1417C165.043 16.7897 164.741 16.3552 164.521 15.8382C164.301 15.3212 164.191 14.7327 164.191 14.0727V13.8747C164.191 13.2147 164.301 12.6207 164.521 12.0927C164.741 11.5647 165.043 11.1137 165.428 10.7397C165.824 10.3657 166.281 10.0797 166.798 9.88171C167.326 9.68371 167.887 9.58471 168.481 9.58471C169.625 9.58471 170.549 9.88171 171.253 10.4757C171.968 11.0697 172.419 11.8507 172.606 12.8187L170.56 13.3467C170.494 12.8627 170.285 12.4447 169.933 12.0927C169.581 11.7407 169.086 11.5647 168.448 11.5647C168.151 11.5647 167.87 11.6197 167.606 11.7297C167.342 11.8397 167.111 11.9992 166.913 12.2082C166.715 12.4062 166.556 12.6537 166.435 12.9507C166.325 13.2367 166.27 13.5612 166.27 13.9242V14.0232C166.27 14.3862 166.325 14.7107 166.435 14.9967C166.556 15.2717 166.715 15.5027 166.913 15.6897C167.111 15.8767 167.342 16.0197 167.606 16.1187C167.87 16.2067 168.151 16.2507 168.448 16.2507C169.086 16.2507 169.57 16.0912 169.9 15.7722C170.241 15.4532 170.461 15.0242 170.56 14.4852L172.606 14.9967Z" fill="white"/>
<path d="M176.554 14.5842C176.565 14.8262 176.62 15.0517 176.719 15.2607C176.829 15.4587 176.972 15.6347 177.148 15.7887C177.335 15.9317 177.544 16.0472 177.775 16.1352C178.017 16.2122 178.27 16.2507 178.534 16.2507C179.051 16.2507 179.447 16.1627 179.722 15.9867C179.997 15.7997 180.195 15.5797 180.316 15.3267L182.098 16.3167C181.999 16.5257 181.862 16.7457 181.686 16.9767C181.51 17.1967 181.279 17.4002 180.993 17.5872C180.718 17.7742 180.377 17.9282 179.97 18.0492C179.574 18.1702 179.106 18.2307 178.567 18.2307C177.951 18.2307 177.39 18.1317 176.884 17.9337C176.378 17.7357 175.938 17.4497 175.564 17.0757C175.201 16.7017 174.915 16.2452 174.706 15.7062C174.508 15.1672 174.409 14.5567 174.409 13.8747V13.7757C174.409 13.1487 174.514 12.5767 174.723 12.0597C174.943 11.5427 175.24 11.1027 175.614 10.7397C175.988 10.3767 176.422 10.0962 176.917 9.89821C177.423 9.68921 177.962 9.58471 178.534 9.58471C179.238 9.58471 179.843 9.71121 180.349 9.96421C180.855 10.2062 181.273 10.5197 181.603 10.9047C181.933 11.2787 182.175 11.6967 182.329 12.1587C182.483 12.6097 182.56 13.0497 182.56 13.4787V14.5842H176.554ZM178.518 11.4657C177.99 11.4657 177.561 11.6032 177.231 11.8782C176.901 12.1422 176.686 12.4502 176.587 12.8022H180.448C180.382 12.4172 180.173 12.0982 179.821 11.8452C179.48 11.5922 179.046 11.4657 178.518 11.4657Z" fill="white"/>
</svg>
