<svg width="150" height="16" viewBox="0 0 150 16" fill="none" xmlns="http://www.w3.org/2000/svg">
<path d="M5.61 10.9107H5.907V0.449707H8.085V11.9997H3.828L2.475 1.53871H2.178V11.9997H0V0.449707H4.257L5.61 10.9107Z" fill="white"/>
<path d="M10.5485 0.449707H17.9405V2.52871H12.7265V5.16871H17.8415V7.24771H12.7265V11.9997H10.5485V0.449707Z" fill="white"/>
<path d="M20.0906 0.449707H28.4066V2.52871H25.3376V11.9997H23.1596V2.52871H20.0906V0.449707Z" fill="white"/>
<path d="M39.7686 0.449707H43.5966L44.2566 9.12871V10.8117H44.6526V9.12871L45.3126 0.449707H49.1406V11.9997H47.1606V4.27771L47.3586 1.63771H46.9626L46.1046 11.9997H42.8376L41.9466 1.63771H41.5506L41.7486 4.27771V11.9997H39.7686V0.449707Z" fill="white"/>
<path d="M56.0921 10.8117C55.8721 11.3287 55.5641 11.6972 55.1681 11.9172C54.7721 12.1262 54.3101 12.2307 53.7821 12.2307C53.2871 12.2307 52.8196 12.1372 52.3796 11.9502C51.9506 11.7632 51.5711 11.4882 51.2411 11.1252C50.9111 10.7622 50.6471 10.3222 50.4491 9.80521C50.2621 9.28821 50.1686 8.69971 50.1686 8.03971V7.77571C50.1686 7.12671 50.2621 6.54371 50.4491 6.02671C50.6361 5.50971 50.8891 5.06971 51.2081 4.70671C51.5271 4.34371 51.8956 4.06871 52.3136 3.88171C52.7426 3.68371 53.1991 3.58471 53.6831 3.58471C54.2661 3.58471 54.7336 3.68371 55.0856 3.88171C55.4486 4.07971 55.7346 4.38771 55.9436 4.80571H56.2406V3.81571H58.3196V9.52471C58.3196 9.85471 58.4681 10.0197 58.7651 10.0197H59.0786V11.9997H57.6596C57.2856 11.9997 56.9776 11.8897 56.7356 11.6697C56.5046 11.4497 56.3891 11.1637 56.3891 10.8117H56.0921ZM54.2441 10.2507C54.8491 10.2507 55.3331 10.0527 55.6961 9.65671C56.0591 9.24971 56.2406 8.69971 56.2406 8.00671V7.80871C56.2406 7.11571 56.0591 6.57121 55.6961 6.17521C55.3331 5.76821 54.8491 5.56471 54.2441 5.56471C53.6391 5.56471 53.1551 5.76821 52.7921 6.17521C52.4291 6.57121 52.2476 7.11571 52.2476 7.80871V8.00671C52.2476 8.69971 52.4291 9.24971 52.7921 9.65671C53.1551 10.0527 53.6391 10.2507 54.2441 10.2507Z" fill="white"/>
<path d="M60.5027 3.81571H63.9677V5.00371H64.2647C64.4187 4.55271 64.6772 4.20621 65.0402 3.96421C65.4142 3.71121 65.8597 3.58471 66.3767 3.58471C67.1907 3.58471 67.8452 3.84321 68.3402 4.36021C68.8352 4.86621 69.0827 5.64171 69.0827 6.68671V7.04971L66.9377 7.24771V7.01671C66.9377 6.56571 66.8222 6.20821 66.5912 5.94421C66.3602 5.66921 66.0137 5.53171 65.5517 5.53171C65.0897 5.53171 64.7267 5.69121 64.4627 6.01021C64.1987 6.32921 64.0667 6.78571 64.0667 7.37971V10.0197H65.9477V11.9997H60.3047V10.0197H61.9877V5.79571H60.5027V3.81571Z" fill="white"/>
<path d="M73.7407 6.81871H74.1367L76.3147 3.81571H78.5917V3.91471L75.9517 7.66021V7.95721L78.8557 11.9007V11.9997H76.4797L74.1367 8.79871H73.7407V11.9997H71.6617V0.449707H73.7407V6.81871Z" fill="white"/>
<path d="M82.9362 8.58421C82.9472 8.82621 83.0022 9.05171 83.1012 9.26071C83.2112 9.45871 83.3542 9.63471 83.5302 9.78871C83.7172 9.93171 83.9262 10.0472 84.1572 10.1352C84.3992 10.2122 84.6522 10.2507 84.9162 10.2507C85.4332 10.2507 85.8292 10.1627 86.1042 9.98671C86.3792 9.79971 86.5772 9.57971 86.6982 9.32671L88.4802 10.3167C88.3812 10.5257 88.2437 10.7457 88.0677 10.9767C87.8917 11.1967 87.6607 11.4002 87.3747 11.5872C87.0997 11.7742 86.7587 11.9282 86.3517 12.0492C85.9557 12.1702 85.4882 12.2307 84.9492 12.2307C84.3332 12.2307 83.7722 12.1317 83.2662 11.9337C82.7602 11.7357 82.3202 11.4497 81.9462 11.0757C81.5832 10.7017 81.2972 10.2452 81.0882 9.70621C80.8902 9.16721 80.7912 8.55671 80.7912 7.87471V7.77571C80.7912 7.14871 80.8957 6.57671 81.1047 6.05971C81.3247 5.54271 81.6217 5.10271 81.9957 4.73971C82.3697 4.37671 82.8042 4.09621 83.2992 3.89821C83.8052 3.68921 84.3442 3.58471 84.9162 3.58471C85.6202 3.58471 86.2252 3.71121 86.7312 3.96421C87.2372 4.20621 87.6552 4.51971 87.9852 4.90471C88.3152 5.27871 88.5572 5.69671 88.7112 6.15871C88.8652 6.60971 88.9422 7.04971 88.9422 7.47871V8.58421H82.9362ZM84.8997 5.46571C84.3717 5.46571 83.9427 5.60321 83.6127 5.87821C83.2827 6.14221 83.0682 6.45021 82.9692 6.80221H86.8302C86.7642 6.41721 86.5552 6.09821 86.2032 5.84521C85.8622 5.59221 85.4277 5.46571 84.8997 5.46571Z" fill="white"/>
<path d="M90.9767 3.81571H93.4023V0.449707H95.4813V3.81571H98.4348V5.79571H95.4813V9.52471C95.4813 9.85471 95.6297 10.0197 95.9267 10.0197H98.1378V11.9997H94.6728C94.2988 11.9997 93.9908 11.8787 93.7488 11.6367C93.5178 11.3947 93.4023 11.0867 93.4023 10.7127V5.79571H90.9767V3.81571Z" fill="white"/>
<path d="M102.961 15.2997H100.882V3.81571H102.961V5.00371H103.258C103.478 4.55271 103.797 4.20621 104.215 3.96421C104.633 3.71121 105.166 3.58471 105.815 3.58471C106.299 3.58471 106.756 3.67821 107.185 3.86521C107.625 4.05221 108.004 4.32721 108.323 4.69021C108.653 5.04221 108.912 5.47671 109.099 5.99371C109.297 6.51071 109.396 7.09921 109.396 7.75921V8.05621C109.396 8.72721 109.302 9.32121 109.115 9.83821C108.928 10.3552 108.675 10.7952 108.356 11.1582C108.037 11.5102 107.658 11.7797 107.218 11.9667C106.789 12.1427 106.321 12.2307 105.815 12.2307C105.441 12.2307 105.117 12.1922 104.842 12.1152C104.567 12.0382 104.325 11.9337 104.116 11.8017C103.918 11.6697 103.747 11.5212 103.604 11.3562C103.472 11.1802 103.357 10.9987 103.258 10.8117H102.961V15.2997ZM105.139 10.2507C105.788 10.2507 106.31 10.0527 106.706 9.65671C107.113 9.24971 107.317 8.69971 107.317 8.00671V7.80871C107.317 7.11571 107.113 6.57121 106.706 6.17521C106.31 5.76821 105.788 5.56471 105.139 5.56471C104.49 5.56471 103.962 5.77371 103.555 6.19171C103.159 6.59871 102.961 7.13771 102.961 7.80871V8.00671C102.961 8.67771 103.159 9.22221 103.555 9.64021C103.962 10.0472 104.49 10.2507 105.139 10.2507Z" fill="white"/>
<path d="M111.364 10.0197H114.235V2.42971H111.463V0.449707H116.314V10.0197H118.987V11.9997H111.364V10.0197Z" fill="white"/>
<path d="M126.813 10.8117C126.593 11.3287 126.285 11.6972 125.889 11.9172C125.493 12.1262 125.031 12.2307 124.503 12.2307C124.008 12.2307 123.541 12.1372 123.101 11.9502C122.672 11.7632 122.292 11.4882 121.962 11.1252C121.632 10.7622 121.368 10.3222 121.17 9.80521C120.983 9.28821 120.89 8.69971 120.89 8.03971V7.77571C120.89 7.12671 120.983 6.54371 121.17 6.02671C121.357 5.50971 121.61 5.06971 121.929 4.70671C122.248 4.34371 122.617 4.06871 123.035 3.88171C123.464 3.68371 123.92 3.58471 124.404 3.58471C124.987 3.58471 125.455 3.68371 125.807 3.88171C126.17 4.07971 126.456 4.38771 126.665 4.80571H126.962V3.81571H129.041V9.52471C129.041 9.85471 129.189 10.0197 129.486 10.0197H129.8V11.9997H128.381C128.007 11.9997 127.699 11.8897 127.457 11.6697C127.226 11.4497 127.11 11.1637 127.11 10.8117H126.813ZM124.965 10.2507C125.57 10.2507 126.054 10.0527 126.417 9.65671C126.78 9.24971 126.962 8.69971 126.962 8.00671V7.80871C126.962 7.11571 126.78 6.57121 126.417 6.17521C126.054 5.76821 125.57 5.56471 124.965 5.56471C124.36 5.56471 123.876 5.76821 123.513 6.17521C123.15 6.57121 122.969 7.11571 122.969 7.80871V8.00671C122.969 8.69971 123.15 9.24971 123.513 9.65671C123.876 10.0527 124.36 10.2507 124.965 10.2507Z" fill="white"/>
<path d="M139.606 8.99671C139.419 9.96471 138.973 10.7457 138.269 11.3397C137.576 11.9337 136.647 12.2307 135.481 12.2307C134.876 12.2307 134.309 12.1372 133.781 11.9502C133.264 11.7632 132.813 11.4937 132.428 11.1417C132.043 10.7897 131.741 10.3552 131.521 9.83821C131.301 9.32121 131.191 8.73271 131.191 8.07271V7.87471C131.191 7.21471 131.301 6.62071 131.521 6.09271C131.741 5.56471 132.043 5.11371 132.428 4.73971C132.824 4.36571 133.281 4.07971 133.798 3.88171C134.326 3.68371 134.887 3.58471 135.481 3.58471C136.625 3.58471 137.549 3.88171 138.253 4.47571C138.968 5.06971 139.419 5.85071 139.606 6.81871L137.56 7.34671C137.494 6.86271 137.285 6.44471 136.933 6.09271C136.581 5.74071 136.086 5.56471 135.448 5.56471C135.151 5.56471 134.87 5.61971 134.606 5.72971C134.342 5.83971 134.111 5.99921 133.913 6.20821C133.715 6.40621 133.556 6.65371 133.435 6.95071C133.325 7.23671 133.27 7.56121 133.27 7.92421V8.02321C133.27 8.38621 133.325 8.71071 133.435 8.99671C133.556 9.27171 133.715 9.50271 133.913 9.68971C134.111 9.87671 134.342 10.0197 134.606 10.1187C134.87 10.2067 135.151 10.2507 135.448 10.2507C136.086 10.2507 136.57 10.0912 136.9 9.77221C137.241 9.45321 137.461 9.02421 137.56 8.48521L139.606 8.99671Z" fill="white"/>
<path d="M143.554 8.58421C143.565 8.82621 143.62 9.05171 143.719 9.26071C143.829 9.45871 143.972 9.63471 144.148 9.78871C144.335 9.93171 144.544 10.0472 144.775 10.1352C145.017 10.2122 145.27 10.2507 145.534 10.2507C146.051 10.2507 146.447 10.1627 146.722 9.98671C146.997 9.79971 147.195 9.57971 147.316 9.32671L149.098 10.3167C148.999 10.5257 148.862 10.7457 148.686 10.9767C148.51 11.1967 148.279 11.4002 147.993 11.5872C147.718 11.7742 147.377 11.9282 146.97 12.0492C146.574 12.1702 146.106 12.2307 145.567 12.2307C144.951 12.2307 144.39 12.1317 143.884 11.9337C143.378 11.7357 142.938 11.4497 142.564 11.0757C142.201 10.7017 141.915 10.2452 141.706 9.70621C141.508 9.16721 141.409 8.55671 141.409 7.87471V7.77571C141.409 7.14871 141.514 6.57671 141.723 6.05971C141.943 5.54271 142.24 5.10271 142.614 4.73971C142.988 4.37671 143.422 4.09621 143.917 3.89821C144.423 3.68921 144.962 3.58471 145.534 3.58471C146.238 3.58471 146.843 3.71121 147.349 3.96421C147.855 4.20621 148.273 4.51971 148.603 4.90471C148.933 5.27871 149.175 5.69671 149.329 6.15871C149.483 6.60971 149.56 7.04971 149.56 7.47871V8.58421H143.554ZM145.518 5.46571C144.99 5.46571 144.561 5.60321 144.231 5.87821C143.901 6.14221 143.686 6.45021 143.587 6.80221H147.448C147.382 6.41721 147.173 6.09821 146.821 5.84521C146.48 5.59221 146.046 5.46571 145.518 5.46571Z" fill="white"/>
</svg>
