<svg width="81" height="80" viewBox="0 0 81 80" fill="none" xmlns="http://www.w3.org/2000/svg">
<path d="M11.9686 54.0622L19.5311 11.2185C19.584 10.8951 19.7007 10.5855 19.8744 10.3077C20.0481 10.0299 20.2754 9.78948 20.543 9.60042C20.8106 9.41136 21.1132 9.27745 21.433 9.20651C21.7529 9.13557 22.0837 9.12901 22.4061 9.18722L39.6561 12.2185C40.3079 12.3403 40.8858 12.7131 41.2656 13.2565C41.6455 13.8 41.7969 14.4708 41.6874 15.1247L34.0936 58.2185C33.5736 61.1202 31.9384 63.7031 29.5379 65.4143C27.1375 67.1256 24.1626 67.8293 21.2499 67.3747C15.0311 66.3747 10.8749 60.281 11.9686 54.0622Z" stroke="white" stroke-width="3" stroke-linecap="round" stroke-linejoin="round"/>
<path d="M37.4678 39L60.249 30.7187C60.5587 30.6044 60.8881 30.5525 61.2179 30.5661C61.5478 30.5797 61.8717 30.6585 62.171 30.7979C62.4703 30.9374 62.7389 31.1348 62.9615 31.3786C63.1841 31.6225 63.3561 31.908 63.4678 32.2187L69.4678 48.6562C69.6891 49.278 69.6556 49.962 69.3746 50.5591C69.0936 51.1562 68.5879 51.618 67.9678 51.8437L26.8428 66.8125" stroke="white" stroke-width="3" stroke-linecap="round" stroke-linejoin="round"/>
<path d="M69.25 50.7812V65C69.25 65.663 68.9866 66.2989 68.5178 66.7678C68.0489 67.2366 67.413 67.5 66.75 67.5H23" stroke="white" stroke-width="3" stroke-linecap="round" stroke-linejoin="round"/>
<path d="M23 60C25.0711 60 26.75 58.3211 26.75 56.25C26.75 54.1789 25.0711 52.5 23 52.5C20.9289 52.5 19.25 54.1789 19.25 56.25C19.25 58.3211 20.9289 60 23 60Z" fill="white"/>
</svg>
